<svg width="133" height="44" viewBox="0 0 133 44" fill="none" xmlns="http://www.w3.org/2000/svg">
<path d="M11.4428 32.7289C2 30.1267 2 28.1578 2 19.7778C2 11.3978 2 7.20667 11.4428 4.60444C20.8985 2 36.0947 2 66.5 2C96.9053 2 112.108 2 121.551 4.60444C130.994 7.20889 131 11.3978 131 19.7778C131 28.1578 131 30.1267 121.551 32.7289C112.114 35.3333 96.9053 35.3333 66.5 35.3333C50.3105 35.3333 41.99 39.1956 27.8 42V34.8622C20.7437 34.5 15.5514 33.8622 11.4428 32.7289Z" fill="black" stroke="white" stroke-width="2.375" stroke-linecap="round" stroke-linejoin="round"/>
<path d="M19.4922 18.7891L21.7344 19.5C21.3906 20.75 20.8177 21.6797 20.0156 22.2891C19.2188 22.8932 18.2057 23.1953 16.9766 23.1953C15.4557 23.1953 14.2057 22.6771 13.2266 21.6406C12.2474 20.599 11.7578 19.1771 11.7578 17.375C11.7578 15.4688 12.25 13.9896 13.2344 12.9375C14.2188 11.8802 15.513 11.3516 17.1172 11.3516C18.5182 11.3516 19.6562 11.7656 20.5312 12.5938C21.0521 13.0833 21.4427 13.7865 21.7031 14.7031L19.4141 15.25C19.2786 14.6562 18.9948 14.1875 18.5625 13.8438C18.1354 13.5 17.6146 13.3281 17 13.3281C16.151 13.3281 15.4609 13.6328 14.9297 14.2422C14.4036 14.8516 14.1406 15.8385 14.1406 17.2031C14.1406 18.651 14.401 19.6823 14.9219 20.2969C15.4427 20.9115 16.1198 21.2188 16.9531 21.2188C17.5677 21.2188 18.0964 21.0234 18.5391 20.6328C18.9818 20.2422 19.2995 19.6276 19.4922 18.7891ZM23.2031 18.7344C23.2031 18.0052 23.3828 17.2995 23.7422 16.6172C24.1016 15.9349 24.6094 15.4141 25.2656 15.0547C25.9271 14.6953 26.6641 14.5156 27.4766 14.5156C28.7318 14.5156 29.7604 14.9245 30.5625 15.7422C31.3646 16.5547 31.7656 17.5833 31.7656 18.8281C31.7656 20.0833 31.3594 21.125 30.5469 21.9531C29.7396 22.776 28.7214 23.1875 27.4922 23.1875C26.7318 23.1875 26.0052 23.0156 25.3125 22.6719C24.625 22.3281 24.1016 21.8255 23.7422 21.1641C23.3828 20.4974 23.2031 19.6875 23.2031 18.7344ZM25.4531 18.8516C25.4531 19.6745 25.6484 20.3047 26.0391 20.7422C26.4297 21.1797 26.9115 21.3984 27.4844 21.3984C28.0573 21.3984 28.5365 21.1797 28.9219 20.7422C29.3125 20.3047 29.5078 19.6693 29.5078 18.8359C29.5078 18.0234 29.3125 17.3984 28.9219 16.9609C28.5365 16.5234 28.0573 16.3047 27.4844 16.3047C26.9115 16.3047 26.4297 16.5234 26.0391 16.9609C25.6484 17.3984 25.4531 18.0286 25.4531 18.8516ZM33.3281 14.7031H35.3516V15.8359C36.0755 14.9557 36.9375 14.5156 37.9375 14.5156C38.4688 14.5156 38.9297 14.625 39.3203 14.8438C39.7109 15.0625 40.0312 15.3932 40.2812 15.8359C40.6458 15.3932 41.0391 15.0625 41.4609 14.8438C41.8828 14.625 42.3333 14.5156 42.8125 14.5156C43.4219 14.5156 43.9375 14.6406 44.3594 14.8906C44.7812 15.1354 45.0964 15.4974 45.3047 15.9766C45.4557 16.3307 45.5312 16.9036 45.5312 17.6953V23H43.3359V18.2578C43.3359 17.4349 43.2604 16.9036 43.1094 16.6641C42.9062 16.3516 42.5938 16.1953 42.1719 16.1953C41.8646 16.1953 41.5755 16.2891 41.3047 16.4766C41.0339 16.6641 40.8385 16.9401 40.7188 17.3047C40.599 17.6641 40.5391 18.2344 40.5391 19.0156V23H38.3438V18.4531C38.3438 17.6458 38.3047 17.125 38.2266 16.8906C38.1484 16.6562 38.026 16.4818 37.8594 16.3672C37.6979 16.2526 37.4766 16.1953 37.1953 16.1953C36.8568 16.1953 36.5521 16.2865 36.2812 16.4688C36.0104 16.651 35.8151 16.9141 35.6953 17.2578C35.5807 17.6016 35.5234 18.1719 35.5234 18.9688V23H33.3281V14.7031ZM47.6641 14.7031H49.7109V15.9219C49.9766 15.5052 50.3359 15.1667 50.7891 14.9062C51.2422 14.6458 51.7448 14.5156 52.2969 14.5156C53.2604 14.5156 54.0781 14.8932 54.75 15.6484C55.4219 16.4036 55.7578 17.4557 55.7578 18.8047C55.7578 20.1901 55.4193 21.2682 54.7422 22.0391C54.0651 22.8047 53.2448 23.1875 52.2812 23.1875C51.8229 23.1875 51.4062 23.0964 51.0312 22.9141C50.6615 22.7318 50.2708 22.4193 49.8594 21.9766V26.1562H47.6641V14.7031ZM49.8359 18.7109C49.8359 19.6432 50.0208 20.3333 50.3906 20.7812C50.7604 21.224 51.2109 21.4453 51.7422 21.4453C52.2526 21.4453 52.6771 21.2422 53.0156 20.8359C53.3542 20.4245 53.5234 19.7526 53.5234 18.8203C53.5234 17.9505 53.349 17.3047 53 16.8828C52.651 16.4609 52.2188 16.25 51.7031 16.25C51.1667 16.25 50.7214 16.4583 50.3672 16.875C50.013 17.2865 49.8359 17.8984 49.8359 18.7109ZM57.5078 23V11.5469H59.7031V23H57.5078ZM63.6016 17.2344L61.6094 16.875C61.8333 16.0729 62.2188 15.4792 62.7656 15.0938C63.3125 14.7083 64.125 14.5156 65.2031 14.5156C66.1823 14.5156 66.9115 14.6328 67.3906 14.8672C67.8698 15.0964 68.2057 15.3906 68.3984 15.75C68.5964 16.1042 68.6953 16.7578 68.6953 17.7109L68.6719 20.2734C68.6719 21.0026 68.7057 21.5417 68.7734 21.8906C68.8464 22.2344 68.9792 22.6042 69.1719 23H67C66.9427 22.8542 66.8724 22.638 66.7891 22.3516C66.7526 22.2214 66.7266 22.1354 66.7109 22.0938C66.3359 22.4583 65.9349 22.7318 65.5078 22.9141C65.0807 23.0964 64.625 23.1875 64.1406 23.1875C63.2865 23.1875 62.612 22.9557 62.1172 22.4922C61.6276 22.0286 61.3828 21.4427 61.3828 20.7344C61.3828 20.2656 61.4948 19.849 61.7188 19.4844C61.9427 19.1146 62.2552 18.8333 62.6562 18.6406C63.0625 18.4427 63.6458 18.2708 64.4062 18.125C65.4323 17.9323 66.1432 17.7526 66.5391 17.5859V17.3672C66.5391 16.9453 66.4349 16.6458 66.2266 16.4688C66.0182 16.2865 65.625 16.1953 65.0469 16.1953C64.6562 16.1953 64.3516 16.2734 64.1328 16.4297C63.9141 16.5807 63.737 16.849 63.6016 17.2344ZM66.5391 19.0156C66.2578 19.1094 65.8125 19.2214 65.2031 19.3516C64.5938 19.4818 64.1953 19.6094 64.0078 19.7344C63.7214 19.9375 63.5781 20.1953 63.5781 20.5078C63.5781 20.8151 63.6927 21.0807 63.9219 21.3047C64.151 21.5286 64.4427 21.6406 64.7969 21.6406C65.1927 21.6406 65.5703 21.5104 65.9297 21.25C66.1953 21.0521 66.3698 20.8099 66.4531 20.5234C66.5104 20.3359 66.5391 19.9792 66.5391 19.4531V19.0156ZM70.8672 13.5781V11.5469H73.0625V13.5781H70.8672ZM70.8672 23V14.7031H73.0625V23H70.8672ZM82.8672 23H80.6719V18.7656C80.6719 17.8698 80.625 17.2917 80.5312 17.0312C80.4375 16.7656 80.2839 16.5599 80.0703 16.4141C79.862 16.2682 79.6094 16.1953 79.3125 16.1953C78.9323 16.1953 78.5911 16.2995 78.2891 16.5078C77.987 16.7161 77.7786 16.9922 77.6641 17.3359C77.5547 17.6797 77.5 18.3151 77.5 19.2422V23H75.3047V14.7031H77.3438V15.9219C78.0677 14.9844 78.9792 14.5156 80.0781 14.5156C80.5625 14.5156 81.0052 14.6042 81.4062 14.7812C81.8073 14.9531 82.1094 15.1745 82.3125 15.4453C82.5208 15.7161 82.6641 16.0234 82.7422 16.3672C82.8255 16.7109 82.8672 17.2031 82.8672 17.8438V23Z" fill="#ABFF2F"/>
<path d="M85.1172 23V11.5469H93.6094V13.4844H87.4297V16.0234H93.1797V17.9531H87.4297V21.0703H93.8281V23H85.1172ZM97.4141 17.2344L95.4219 16.875C95.6458 16.0729 96.0312 15.4792 96.5781 15.0938C97.125 14.7083 97.9375 14.5156 99.0156 14.5156C99.9948 14.5156 100.724 14.6328 101.203 14.8672C101.682 15.0964 102.018 15.3906 102.211 15.75C102.409 16.1042 102.508 16.7578 102.508 17.7109L102.484 20.2734C102.484 21.0026 102.518 21.5417 102.586 21.8906C102.659 22.2344 102.792 22.6042 102.984 23H100.812C100.755 22.8542 100.685 22.638 100.602 22.3516C100.565 22.2214 100.539 22.1354 100.523 22.0938C100.148 22.4583 99.7474 22.7318 99.3203 22.9141C98.8932 23.0964 98.4375 23.1875 97.9531 23.1875C97.099 23.1875 96.4245 22.9557 95.9297 22.4922C95.4401 22.0286 95.1953 21.4427 95.1953 20.7344C95.1953 20.2656 95.3073 19.849 95.5312 19.4844C95.7552 19.1146 96.0677 18.8333 96.4688 18.6406C96.875 18.4427 97.4583 18.2708 98.2188 18.125C99.2448 17.9323 99.9557 17.7526 100.352 17.5859V17.3672C100.352 16.9453 100.247 16.6458 100.039 16.4688C99.8307 16.2865 99.4375 16.1953 98.8594 16.1953C98.4688 16.1953 98.1641 16.2734 97.9453 16.4297C97.7266 16.5807 97.5495 16.849 97.4141 17.2344ZM100.352 19.0156C100.07 19.1094 99.625 19.2214 99.0156 19.3516C98.4062 19.4818 98.0078 19.6094 97.8203 19.7344C97.5339 19.9375 97.3906 20.1953 97.3906 20.5078C97.3906 20.8151 97.5052 21.0807 97.7344 21.3047C97.9635 21.5286 98.2552 21.6406 98.6094 21.6406C99.0052 21.6406 99.3828 21.5104 99.7422 21.25C100.008 21.0521 100.182 20.8099 100.266 20.5234C100.323 20.3359 100.352 19.9792 100.352 19.4531V19.0156ZM103.906 20.6328L106.109 20.2969C106.203 20.724 106.393 21.0495 106.68 21.2734C106.966 21.4922 107.367 21.6016 107.883 21.6016C108.451 21.6016 108.878 21.4974 109.164 21.2891C109.357 21.1432 109.453 20.9479 109.453 20.7031C109.453 20.5365 109.401 20.3984 109.297 20.2891C109.188 20.1849 108.943 20.0885 108.562 20C106.792 19.6094 105.669 19.2526 105.195 18.9297C104.539 18.4818 104.211 17.8594 104.211 17.0625C104.211 16.3438 104.495 15.7396 105.062 15.25C105.63 14.7604 106.51 14.5156 107.703 14.5156C108.839 14.5156 109.682 14.7005 110.234 15.0703C110.786 15.4401 111.167 15.987 111.375 16.7109L109.305 17.0938C109.216 16.7708 109.047 16.5234 108.797 16.3516C108.552 16.1797 108.201 16.0938 107.742 16.0938C107.164 16.0938 106.75 16.1745 106.5 16.3359C106.333 16.4505 106.25 16.599 106.25 16.7812C106.25 16.9375 106.323 17.0703 106.469 17.1797C106.667 17.3255 107.349 17.5312 108.516 17.7969C109.688 18.0625 110.505 18.388 110.969 18.7734C111.427 19.1641 111.656 19.7083 111.656 20.4062C111.656 21.1667 111.339 21.8203 110.703 22.3672C110.068 22.9141 109.128 23.1875 107.883 23.1875C106.753 23.1875 105.857 22.9583 105.195 22.5C104.539 22.0417 104.109 21.4193 103.906 20.6328ZM112.547 14.7031H114.883L116.867 20.5938L118.805 14.7031H121.078L118.148 22.6875L117.625 24.1328C117.432 24.6172 117.247 24.987 117.07 25.2422C116.898 25.4974 116.698 25.7031 116.469 25.8594C116.245 26.0208 115.966 26.1458 115.633 26.2344C115.305 26.3229 114.932 26.3672 114.516 26.3672C114.094 26.3672 113.68 26.3229 113.273 26.2344L113.078 24.5156C113.422 24.5833 113.732 24.6172 114.008 24.6172C114.518 24.6172 114.896 24.4661 115.141 24.1641C115.385 23.8672 115.573 23.487 115.703 23.0234L112.547 14.7031Z" fill="white"/>
<path d="M20.9922 18.7891L23.2344 19.5C22.8906 20.75 22.3177 21.6797 21.5156 22.2891C20.7188 22.8932 19.7057 23.1953 18.4766 23.1953C16.9557 23.1953 15.7057 22.6771 14.7266 21.6406C13.7474 20.599 13.2578 19.1771 13.2578 17.375C13.2578 15.4688 13.75 13.9896 14.7344 12.9375C15.7188 11.8802 17.013 11.3516 18.6172 11.3516C20.0182 11.3516 21.1562 11.7656 22.0312 12.5938C22.5521 13.0833 22.9427 13.7865 23.2031 14.7031L20.9141 15.25C20.7786 14.6562 20.4948 14.1875 20.0625 13.8438C19.6354 13.5 19.1146 13.3281 18.5 13.3281C17.651 13.3281 16.9609 13.6328 16.4297 14.2422C15.9036 14.8516 15.6406 15.8385 15.6406 17.2031C15.6406 18.651 15.901 19.6823 16.4219 20.2969C16.9427 20.9115 17.6198 21.2188 18.4531 21.2188C19.0677 21.2188 19.5964 21.0234 20.0391 20.6328C20.4818 20.2422 20.7995 19.6276 20.9922 18.7891ZM24.7031 18.7344C24.7031 18.0052 24.8828 17.2995 25.2422 16.6172C25.6016 15.9349 26.1094 15.4141 26.7656 15.0547C27.4271 14.6953 28.1641 14.5156 28.9766 14.5156C30.2318 14.5156 31.2604 14.9245 32.0625 15.7422C32.8646 16.5547 33.2656 17.5833 33.2656 18.8281C33.2656 20.0833 32.8594 21.125 32.0469 21.9531C31.2396 22.776 30.2214 23.1875 28.9922 23.1875C28.2318 23.1875 27.5052 23.0156 26.8125 22.6719C26.125 22.3281 25.6016 21.8255 25.2422 21.1641C24.8828 20.4974 24.7031 19.6875 24.7031 18.7344ZM26.9531 18.8516C26.9531 19.6745 27.1484 20.3047 27.5391 20.7422C27.9297 21.1797 28.4115 21.3984 28.9844 21.3984C29.5573 21.3984 30.0365 21.1797 30.4219 20.7422C30.8125 20.3047 31.0078 19.6693 31.0078 18.8359C31.0078 18.0234 30.8125 17.3984 30.4219 16.9609C30.0365 16.5234 29.5573 16.3047 28.9844 16.3047C28.4115 16.3047 27.9297 16.5234 27.5391 16.9609C27.1484 17.3984 26.9531 18.0286 26.9531 18.8516ZM34.8281 14.7031H36.8516V15.8359C37.5755 14.9557 38.4375 14.5156 39.4375 14.5156C39.9688 14.5156 40.4297 14.625 40.8203 14.8438C41.2109 15.0625 41.5312 15.3932 41.7812 15.8359C42.1458 15.3932 42.5391 15.0625 42.9609 14.8438C43.3828 14.625 43.8333 14.5156 44.3125 14.5156C44.9219 14.5156 45.4375 14.6406 45.8594 14.8906C46.2812 15.1354 46.5964 15.4974 46.8047 15.9766C46.9557 16.3307 47.0312 16.9036 47.0312 17.6953V23H44.8359V18.2578C44.8359 17.4349 44.7604 16.9036 44.6094 16.6641C44.4062 16.3516 44.0938 16.1953 43.6719 16.1953C43.3646 16.1953 43.0755 16.2891 42.8047 16.4766C42.5339 16.6641 42.3385 16.9401 42.2188 17.3047C42.099 17.6641 42.0391 18.2344 42.0391 19.0156V23H39.8438V18.4531C39.8438 17.6458 39.8047 17.125 39.7266 16.8906C39.6484 16.6562 39.526 16.4818 39.3594 16.3672C39.1979 16.2526 38.9766 16.1953 38.6953 16.1953C38.3568 16.1953 38.0521 16.2865 37.7812 16.4688C37.5104 16.651 37.3151 16.9141 37.1953 17.2578C37.0807 17.6016 37.0234 18.1719 37.0234 18.9688V23H34.8281V14.7031ZM49.1641 14.7031H51.2109V15.9219C51.4766 15.5052 51.8359 15.1667 52.2891 14.9062C52.7422 14.6458 53.2448 14.5156 53.7969 14.5156C54.7604 14.5156 55.5781 14.8932 56.25 15.6484C56.9219 16.4036 57.2578 17.4557 57.2578 18.8047C57.2578 20.1901 56.9193 21.2682 56.2422 22.0391C55.5651 22.8047 54.7448 23.1875 53.7812 23.1875C53.3229 23.1875 52.9062 23.0964 52.5312 22.9141C52.1615 22.7318 51.7708 22.4193 51.3594 21.9766V26.1562H49.1641V14.7031ZM51.3359 18.7109C51.3359 19.6432 51.5208 20.3333 51.8906 20.7812C52.2604 21.224 52.7109 21.4453 53.2422 21.4453C53.7526 21.4453 54.1771 21.2422 54.5156 20.8359C54.8542 20.4245 55.0234 19.7526 55.0234 18.8203C55.0234 17.9505 54.849 17.3047 54.5 16.8828C54.151 16.4609 53.7188 16.25 53.2031 16.25C52.6667 16.25 52.2214 16.4583 51.8672 16.875C51.513 17.2865 51.3359 17.8984 51.3359 18.7109ZM59.0078 23V11.5469H61.2031V23H59.0078ZM65.1016 17.2344L63.1094 16.875C63.3333 16.0729 63.7188 15.4792 64.2656 15.0938C64.8125 14.7083 65.625 14.5156 66.7031 14.5156C67.6823 14.5156 68.4115 14.6328 68.8906 14.8672C69.3698 15.0964 69.7057 15.3906 69.8984 15.75C70.0964 16.1042 70.1953 16.7578 70.1953 17.7109L70.1719 20.2734C70.1719 21.0026 70.2057 21.5417 70.2734 21.8906C70.3464 22.2344 70.4792 22.6042 70.6719 23H68.5C68.4427 22.8542 68.3724 22.638 68.2891 22.3516C68.2526 22.2214 68.2266 22.1354 68.2109 22.0938C67.8359 22.4583 67.4349 22.7318 67.0078 22.9141C66.5807 23.0964 66.125 23.1875 65.6406 23.1875C64.7865 23.1875 64.112 22.9557 63.6172 22.4922C63.1276 22.0286 62.8828 21.4427 62.8828 20.7344C62.8828 20.2656 62.9948 19.849 63.2188 19.4844C63.4427 19.1146 63.7552 18.8333 64.1562 18.6406C64.5625 18.4427 65.1458 18.2708 65.9062 18.125C66.9323 17.9323 67.6432 17.7526 68.0391 17.5859V17.3672C68.0391 16.9453 67.9349 16.6458 67.7266 16.4688C67.5182 16.2865 67.125 16.1953 66.5469 16.1953C66.1562 16.1953 65.8516 16.2734 65.6328 16.4297C65.4141 16.5807 65.237 16.849 65.1016 17.2344ZM68.0391 19.0156C67.7578 19.1094 67.3125 19.2214 66.7031 19.3516C66.0938 19.4818 65.6953 19.6094 65.5078 19.7344C65.2214 19.9375 65.0781 20.1953 65.0781 20.5078C65.0781 20.8151 65.1927 21.0807 65.4219 21.3047C65.651 21.5286 65.9427 21.6406 66.2969 21.6406C66.6927 21.6406 67.0703 21.5104 67.4297 21.25C67.6953 21.0521 67.8698 20.8099 67.9531 20.5234C68.0104 20.3359 68.0391 19.9792 68.0391 19.4531V19.0156ZM72.3672 13.5781V11.5469H74.5625V13.5781H72.3672ZM72.3672 23V14.7031H74.5625V23H72.3672ZM84.3672 23H82.1719V18.7656C82.1719 17.8698 82.125 17.2917 82.0312 17.0312C81.9375 16.7656 81.7839 16.5599 81.5703 16.4141C81.362 16.2682 81.1094 16.1953 80.8125 16.1953C80.4323 16.1953 80.0911 16.2995 79.7891 16.5078C79.487 16.7161 79.2786 16.9922 79.1641 17.3359C79.0547 17.6797 79 18.3151 79 19.2422V23H76.8047V14.7031H78.8438V15.9219C79.5677 14.9844 80.4792 14.5156 81.5781 14.5156C82.0625 14.5156 82.5052 14.6042 82.9062 14.7812C83.3073 14.9531 83.6094 15.1745 83.8125 15.4453C84.0208 15.7161 84.1641 16.0234 84.2422 16.3672C84.3255 16.7109 84.3672 17.2031 84.3672 17.8438V23Z" fill="white"/>
<path d="M86.6172 23V11.5469H95.1094V13.4844H88.9297V16.0234H94.6797V17.9531H88.9297V21.0703H95.3281V23H86.6172ZM98.9141 17.2344L96.9219 16.875C97.1458 16.0729 97.5312 15.4792 98.0781 15.0938C98.625 14.7083 99.4375 14.5156 100.516 14.5156C101.495 14.5156 102.224 14.6328 102.703 14.8672C103.182 15.0964 103.518 15.3906 103.711 15.75C103.909 16.1042 104.008 16.7578 104.008 17.7109L103.984 20.2734C103.984 21.0026 104.018 21.5417 104.086 21.8906C104.159 22.2344 104.292 22.6042 104.484 23H102.312C102.255 22.8542 102.185 22.638 102.102 22.3516C102.065 22.2214 102.039 22.1354 102.023 22.0938C101.648 22.4583 101.247 22.7318 100.82 22.9141C100.393 23.0964 99.9375 23.1875 99.4531 23.1875C98.599 23.1875 97.9245 22.9557 97.4297 22.4922C96.9401 22.0286 96.6953 21.4427 96.6953 20.7344C96.6953 20.2656 96.8073 19.849 97.0312 19.4844C97.2552 19.1146 97.5677 18.8333 97.9688 18.6406C98.375 18.4427 98.9583 18.2708 99.7188 18.125C100.745 17.9323 101.456 17.7526 101.852 17.5859V17.3672C101.852 16.9453 101.747 16.6458 101.539 16.4688C101.331 16.2865 100.938 16.1953 100.359 16.1953C99.9688 16.1953 99.6641 16.2734 99.4453 16.4297C99.2266 16.5807 99.0495 16.849 98.9141 17.2344ZM101.852 19.0156C101.57 19.1094 101.125 19.2214 100.516 19.3516C99.9062 19.4818 99.5078 19.6094 99.3203 19.7344C99.0339 19.9375 98.8906 20.1953 98.8906 20.5078C98.8906 20.8151 99.0052 21.0807 99.2344 21.3047C99.4635 21.5286 99.7552 21.6406 100.109 21.6406C100.505 21.6406 100.883 21.5104 101.242 21.25C101.508 21.0521 101.682 20.8099 101.766 20.5234C101.823 20.3359 101.852 19.9792 101.852 19.4531V19.0156ZM105.406 20.6328L107.609 20.2969C107.703 20.724 107.893 21.0495 108.18 21.2734C108.466 21.4922 108.867 21.6016 109.383 21.6016C109.951 21.6016 110.378 21.4974 110.664 21.2891C110.857 21.1432 110.953 20.9479 110.953 20.7031C110.953 20.5365 110.901 20.3984 110.797 20.2891C110.688 20.1849 110.443 20.0885 110.062 20C108.292 19.6094 107.169 19.2526 106.695 18.9297C106.039 18.4818 105.711 17.8594 105.711 17.0625C105.711 16.3438 105.995 15.7396 106.562 15.25C107.13 14.7604 108.01 14.5156 109.203 14.5156C110.339 14.5156 111.182 14.7005 111.734 15.0703C112.286 15.4401 112.667 15.987 112.875 16.7109L110.805 17.0938C110.716 16.7708 110.547 16.5234 110.297 16.3516C110.052 16.1797 109.701 16.0938 109.242 16.0938C108.664 16.0938 108.25 16.1745 108 16.3359C107.833 16.4505 107.75 16.599 107.75 16.7812C107.75 16.9375 107.823 17.0703 107.969 17.1797C108.167 17.3255 108.849 17.5312 110.016 17.7969C111.188 18.0625 112.005 18.388 112.469 18.7734C112.927 19.1641 113.156 19.7083 113.156 20.4062C113.156 21.1667 112.839 21.8203 112.203 22.3672C111.568 22.9141 110.628 23.1875 109.383 23.1875C108.253 23.1875 107.357 22.9583 106.695 22.5C106.039 22.0417 105.609 21.4193 105.406 20.6328ZM114.047 14.7031H116.383L118.367 20.5938L120.305 14.7031H122.578L119.648 22.6875L119.125 24.1328C118.932 24.6172 118.747 24.987 118.57 25.2422C118.398 25.4974 118.198 25.7031 117.969 25.8594C117.745 26.0208 117.466 26.1458 117.133 26.2344C116.805 26.3229 116.432 26.3672 116.016 26.3672C115.594 26.3672 115.18 26.3229 114.773 26.2344L114.578 24.5156C114.922 24.5833 115.232 24.6172 115.508 24.6172C116.018 24.6172 116.396 24.4661 116.641 24.1641C116.885 23.8672 117.073 23.487 117.203 23.0234L114.047 14.7031Z" fill="#ABFF2F"/>
</svg>
