<svg width="525" height="388" viewBox="0 0 525 388" fill="none" xmlns="http://www.w3.org/2000/svg">
<path d="M214.5 29.75C332.475 29.75 429 100.952 429 188.861C429 276.77 332.475 347.972 214.5 347.972C187.902 347.972 162.377 344.392 138.782 338.028C76.1475 387.75 0 387.75 0 387.75C49.9785 341.409 57.915 310.183 58.9875 298.25C22.5225 269.809 0 231.224 0 188.861C0 100.952 96.525 29.75 214.5 29.75Z" fill="white"/>
<path d="M314.5 0C204.5 0 115 70.4844 115 152.5C115 234.516 207.5 300.889 317.5 300.889C342.3 300.889 373 296.938 395 291C453.4 337.389 518.5 343.5 518.5 343.5C471.9 300.266 465.5 269.633 464.5 258.5C498.5 231.966 525 194.023 525 154.5C525 72.4844 424.5 0 314.5 0Z" fill="#ABFF2F"/>
</svg>
