<svg width="203" height="69" viewBox="0 0 203 69" fill="none" xmlns="http://www.w3.org/2000/svg">
<path d="M16.5668 52.5357C2 48.2561 2 45.0182 2 31.2367C2 17.4553 2 10.5627 16.5668 6.28318C31.1535 2 54.5957 2 101.5 2C148.404 2 171.856 2 186.423 6.28318C200.99 10.5664 201 17.4553 201 31.2367C201 45.0182 201 48.2561 186.423 52.5357C171.866 56.8188 148.404 56.8188 101.5 56.8188C76.5255 56.8188 63.69 63.1705 41.8 67.7826V56.0441C30.9147 55.4484 22.9049 54.3995 16.5668 52.5357Z" fill="black" stroke="white" stroke-width="2.375" stroke-linecap="round" stroke-linejoin="round"/>
<mask id="path-2-outside-1_11_104" maskUnits="userSpaceOnUse" x="11" y="18.3914" width="181" height="27" fill="black">
<rect fill="white" x="11" y="18.3914" width="181" height="27"/>
<path d="M24.7998 31.5486L28.4434 32.7039C27.8848 34.7351 26.9538 36.2458 25.6504 37.2361C24.3555 38.2179 22.7093 38.7087 20.7119 38.7087C18.2406 38.7087 16.2093 37.8666 14.6182 36.1824C13.027 34.4897 12.2314 32.1791 12.2314 29.2507C12.2314 26.1531 13.0312 23.7494 14.6309 22.0398C16.2305 20.3217 18.3337 19.4626 20.9404 19.4626C23.2171 19.4626 25.0664 20.1355 26.4883 21.4812C27.3346 22.2768 27.9694 23.4194 28.3926 24.9089L24.6729 25.7976C24.4528 24.8328 23.9915 24.071 23.2891 23.5125C22.5951 22.9539 21.7487 22.6746 20.75 22.6746C19.3704 22.6746 18.249 23.1697 17.3857 24.1599C16.5309 25.1501 16.1035 26.754 16.1035 28.9714C16.1035 31.3243 16.5267 33.0001 17.373 33.9988C18.2194 34.9975 19.3197 35.4968 20.6738 35.4968C21.6725 35.4968 22.5316 35.1794 23.251 34.5447C23.9704 33.9099 24.4867 32.9112 24.7998 31.5486ZM30.8301 31.4597C30.8301 30.2748 31.1221 29.128 31.7061 28.0193C32.29 26.9106 33.1152 26.0642 34.1816 25.4802C35.2565 24.8962 36.4541 24.6042 37.7744 24.6042C39.8141 24.6042 41.4857 25.2686 42.7891 26.5974C44.0924 27.9177 44.7441 29.5893 44.7441 31.6121C44.7441 33.6518 44.084 35.3445 42.7637 36.6902C41.4518 38.0274 39.7972 38.696 37.7998 38.696C36.5641 38.696 35.3835 38.4167 34.2578 37.8582C33.1406 37.2996 32.29 36.4828 31.7061 35.408C31.1221 34.3246 30.8301 33.0085 30.8301 31.4597ZM34.4863 31.6501C34.4863 32.9874 34.8037 34.0115 35.4385 34.7224C36.0732 35.4333 36.8561 35.7888 37.7871 35.7888C38.7181 35.7888 39.4967 35.4333 40.123 34.7224C40.7578 34.0115 41.0752 32.9789 41.0752 31.6248C41.0752 30.3044 40.7578 29.2888 40.123 28.5779C39.4967 27.8669 38.7181 27.5115 37.7871 27.5115C36.8561 27.5115 36.0732 27.8669 35.4385 28.5779C34.8037 29.2888 34.4863 30.3129 34.4863 31.6501ZM47.2832 24.9089H50.5713V26.7498C51.7477 25.3194 53.1484 24.6042 54.7734 24.6042C55.6367 24.6042 56.3857 24.782 57.0205 25.1375C57.6553 25.4929 58.1758 26.0304 58.582 26.7498C59.1745 26.0304 59.8135 25.4929 60.499 25.1375C61.1846 24.782 61.9167 24.6042 62.6953 24.6042C63.6855 24.6042 64.5234 24.8074 65.209 25.2136C65.8945 25.6114 66.4066 26.1996 66.7451 26.9783C66.9906 27.5538 67.1133 28.4848 67.1133 29.7712V38.3914H63.5459V30.6853C63.5459 29.3481 63.4232 28.4848 63.1777 28.0955C62.8477 27.5876 62.3398 27.3337 61.6543 27.3337C61.1549 27.3337 60.6852 27.4861 60.2451 27.7908C59.805 28.0955 59.4876 28.544 59.293 29.1365C59.0983 29.7205 59.001 30.6472 59.001 31.9167V38.3914H55.4336V31.0027C55.4336 29.6908 55.3701 28.8445 55.2432 28.4636C55.1162 28.0828 54.9173 27.7992 54.6465 27.613C54.3841 27.4268 54.0244 27.3337 53.5674 27.3337C53.0173 27.3337 52.5221 27.4819 52.082 27.7781C51.6419 28.0743 51.3245 28.5017 51.1299 29.0603C50.9437 29.6189 50.8506 30.5457 50.8506 31.8406V38.3914H47.2832V24.9089ZM70.5791 24.9089H73.9053V26.8894C74.3369 26.2123 74.9209 25.6622 75.6572 25.239C76.3936 24.8158 77.2103 24.6042 78.1074 24.6042C79.6732 24.6042 81.002 25.2179 82.0938 26.4451C83.1855 27.6723 83.7314 29.3819 83.7314 31.574C83.7314 33.8253 83.1813 35.5772 82.0811 36.8298C80.9808 38.074 79.6478 38.696 78.082 38.696C77.3372 38.696 76.6602 38.5479 76.0508 38.2517C75.4499 37.9555 74.8151 37.4477 74.1465 36.7283V43.5203H70.5791V24.9089ZM74.1084 31.4216C74.1084 32.9366 74.4089 34.058 75.0098 34.7859C75.6107 35.5053 76.3428 35.865 77.2061 35.865C78.0355 35.865 78.7253 35.5349 79.2754 34.8748C79.8255 34.2061 80.1006 33.1143 80.1006 31.5994C80.1006 30.186 79.8171 29.1365 79.25 28.4509C78.6829 27.7654 77.9805 27.4226 77.1426 27.4226C76.2708 27.4226 75.5472 27.7611 74.9717 28.4382C74.3962 29.1069 74.1084 30.1013 74.1084 31.4216ZM86.5752 38.3914V19.78H90.1426V38.3914H86.5752ZM96.4775 29.0222L93.2402 28.4382C93.6042 27.1348 94.2305 26.17 95.1191 25.5437C96.0078 24.9174 97.3281 24.6042 99.0801 24.6042C100.671 24.6042 101.856 24.7947 102.635 25.1755C103.413 25.5479 103.959 26.0261 104.272 26.6101C104.594 27.1856 104.755 28.2478 104.755 29.7966L104.717 33.9607C104.717 35.1456 104.772 36.0216 104.882 36.5886C105 37.1472 105.216 37.7481 105.529 38.3914H102C101.907 38.1544 101.793 37.8031 101.657 37.3376C101.598 37.1261 101.556 36.9864 101.53 36.9187C100.921 37.5111 100.269 37.9555 99.5752 38.2517C98.8812 38.5479 98.1406 38.696 97.3535 38.696C95.9655 38.696 94.8695 38.3194 94.0654 37.5662C93.2699 36.8129 92.8721 35.8608 92.8721 34.7097C92.8721 33.948 93.054 33.2709 93.418 32.6785C93.7819 32.0776 94.2897 31.6205 94.9414 31.3074C95.6016 30.9858 96.5495 30.7065 97.7852 30.4695C99.4525 30.1563 100.608 29.8643 101.251 29.5935V29.238C101.251 28.5525 101.082 28.0658 100.743 27.7781C100.405 27.4819 99.7656 27.3337 98.8262 27.3337C98.1914 27.3337 97.6963 27.4607 97.3408 27.7146C96.9854 27.96 96.6976 28.3959 96.4775 29.0222ZM101.251 31.9167C100.794 32.0691 100.07 32.2511 99.0801 32.4626C98.0898 32.6742 97.4424 32.8816 97.1377 33.0847C96.6722 33.4148 96.4395 33.8337 96.4395 34.3416C96.4395 34.8409 96.6257 35.2725 96.998 35.6365C97.3704 36.0004 97.8444 36.1824 98.4199 36.1824C99.0632 36.1824 99.6768 35.9708 100.261 35.5476C100.692 35.226 100.976 34.8324 101.111 34.3669C101.204 34.0623 101.251 33.4825 101.251 32.6277V31.9167ZM108.284 23.0808V19.78H111.852V23.0808H108.284ZM108.284 38.3914V24.9089H111.852V38.3914H108.284ZM127.784 38.3914H124.217V31.5105C124.217 30.0548 124.141 29.1153 123.988 28.6921C123.836 28.2605 123.586 27.9262 123.239 27.6892C122.901 27.4522 122.49 27.3337 122.008 27.3337C121.39 27.3337 120.836 27.503 120.345 27.8416C119.854 28.1801 119.515 28.6287 119.329 29.1873C119.151 29.7458 119.062 30.7784 119.062 32.2849V38.3914H115.495V24.9089H118.809V26.8894C119.985 25.366 121.466 24.6042 123.252 24.6042C124.039 24.6042 124.758 24.7481 125.41 25.0359C126.062 25.3152 126.553 25.6749 126.883 26.115C127.221 26.5551 127.454 27.0544 127.581 27.613C127.716 28.1716 127.784 28.9714 127.784 30.0125V38.3914Z"/>
<path d="M131.44 38.3914V19.78H145.24V22.9285H135.198V27.0544H144.542V30.1902H135.198V35.2556H145.596V38.3914H131.44ZM151.423 29.0222L148.186 28.4382C148.549 27.1348 149.176 26.17 150.064 25.5437C150.953 24.9174 152.273 24.6042 154.025 24.6042C155.617 24.6042 156.801 24.7947 157.58 25.1755C158.359 25.5479 158.905 26.0261 159.218 26.6101C159.539 27.1856 159.7 28.2478 159.7 29.7966L159.662 33.9607C159.662 35.1456 159.717 36.0216 159.827 36.5886C159.946 37.1472 160.161 37.7481 160.475 38.3914H156.945C156.852 38.1544 156.738 37.8031 156.603 37.3376C156.543 37.1261 156.501 36.9864 156.476 36.9187C155.866 37.5111 155.215 37.9555 154.521 38.2517C153.826 38.5479 153.086 38.696 152.299 38.696C150.911 38.696 149.815 38.3194 149.011 37.5662C148.215 36.8129 147.817 35.8608 147.817 34.7097C147.817 33.948 147.999 33.2709 148.363 32.6785C148.727 32.0776 149.235 31.6205 149.887 31.3074C150.547 30.9858 151.495 30.7065 152.73 30.4695C154.398 30.1563 155.553 29.8643 156.196 29.5935V29.238C156.196 28.5525 156.027 28.0658 155.688 27.7781C155.35 27.4819 154.711 27.3337 153.771 27.3337C153.137 27.3337 152.642 27.4607 152.286 27.7146C151.931 27.96 151.643 28.3959 151.423 29.0222ZM156.196 31.9167C155.739 32.0691 155.016 32.2511 154.025 32.4626C153.035 32.6742 152.388 32.8816 152.083 33.0847C151.618 33.4148 151.385 33.8337 151.385 34.3416C151.385 34.8409 151.571 35.2725 151.943 35.6365C152.316 36.0004 152.79 36.1824 153.365 36.1824C154.008 36.1824 154.622 35.9708 155.206 35.5476C155.638 35.226 155.921 34.8324 156.057 34.3669C156.15 34.0623 156.196 33.4825 156.196 32.6277V31.9167ZM161.973 34.5447L165.553 33.9988C165.705 34.6928 166.014 35.2218 166.479 35.5857C166.945 35.9412 167.597 36.1189 168.435 36.1189C169.357 36.1189 170.051 35.9496 170.517 35.6111C170.83 35.3741 170.986 35.0567 170.986 34.6589C170.986 34.3881 170.902 34.1638 170.732 33.9861C170.555 33.8168 170.157 33.6602 169.539 33.5164C166.661 32.8816 164.838 32.3018 164.067 31.7771C163.001 31.0492 162.468 30.0378 162.468 28.7429C162.468 27.575 162.929 26.5932 163.852 25.7976C164.774 25.002 166.204 24.6042 168.143 24.6042C169.988 24.6042 171.359 24.9047 172.256 25.5056C173.153 26.1065 173.771 26.9952 174.109 28.1716L170.745 28.7937C170.601 28.269 170.326 27.8669 169.92 27.5876C169.522 27.3083 168.951 27.1687 168.206 27.1687C167.267 27.1687 166.594 27.2999 166.188 27.5623C165.917 27.7485 165.781 27.9897 165.781 28.2859C165.781 28.5398 165.9 28.7556 166.137 28.9333C166.458 29.1703 167.567 29.5046 169.463 29.9363C171.367 30.3679 172.696 30.8969 173.449 31.5232C174.194 32.158 174.566 33.0424 174.566 34.1765C174.566 35.4122 174.05 36.4744 173.018 37.363C171.985 38.2517 170.457 38.696 168.435 38.696C166.598 38.696 165.142 38.3236 164.067 37.5789C163.001 36.8341 162.303 35.8227 161.973 34.5447ZM176.014 24.9089H179.81L183.034 34.4812L186.183 24.9089H189.877L185.116 37.8835L184.266 40.2322C183.952 41.0193 183.652 41.6202 183.364 42.0349C183.085 42.4496 182.759 42.7839 182.387 43.0378C182.023 43.3002 181.57 43.5033 181.028 43.6472C180.495 43.7911 179.89 43.863 179.213 43.863C178.527 43.863 177.854 43.7911 177.194 43.6472L176.877 40.8542C177.436 40.9643 177.939 41.0193 178.388 41.0193C179.217 41.0193 179.831 40.7738 180.229 40.283C180.626 39.8005 180.931 39.1827 181.143 38.4294L176.014 24.9089Z"/>
</mask>
<path d="M24.7998 31.5486L28.4434 32.7039C27.8848 34.7351 26.9538 36.2458 25.6504 37.2361C24.3555 38.2179 22.7093 38.7087 20.7119 38.7087C18.2406 38.7087 16.2093 37.8666 14.6182 36.1824C13.027 34.4897 12.2314 32.1791 12.2314 29.2507C12.2314 26.1531 13.0312 23.7494 14.6309 22.0398C16.2305 20.3217 18.3337 19.4626 20.9404 19.4626C23.2171 19.4626 25.0664 20.1355 26.4883 21.4812C27.3346 22.2768 27.9694 23.4194 28.3926 24.9089L24.6729 25.7976C24.4528 24.8328 23.9915 24.071 23.2891 23.5125C22.5951 22.9539 21.7487 22.6746 20.75 22.6746C19.3704 22.6746 18.249 23.1697 17.3857 24.1599C16.5309 25.1501 16.1035 26.754 16.1035 28.9714C16.1035 31.3243 16.5267 33.0001 17.373 33.9988C18.2194 34.9975 19.3197 35.4968 20.6738 35.4968C21.6725 35.4968 22.5316 35.1794 23.251 34.5447C23.9704 33.9099 24.4867 32.9112 24.7998 31.5486ZM30.8301 31.4597C30.8301 30.2748 31.1221 29.128 31.7061 28.0193C32.29 26.9106 33.1152 26.0642 34.1816 25.4802C35.2565 24.8962 36.4541 24.6042 37.7744 24.6042C39.8141 24.6042 41.4857 25.2686 42.7891 26.5974C44.0924 27.9177 44.7441 29.5893 44.7441 31.6121C44.7441 33.6518 44.084 35.3445 42.7637 36.6902C41.4518 38.0274 39.7972 38.696 37.7998 38.696C36.5641 38.696 35.3835 38.4167 34.2578 37.8582C33.1406 37.2996 32.29 36.4828 31.7061 35.408C31.1221 34.3246 30.8301 33.0085 30.8301 31.4597ZM34.4863 31.6501C34.4863 32.9874 34.8037 34.0115 35.4385 34.7224C36.0732 35.4333 36.8561 35.7888 37.7871 35.7888C38.7181 35.7888 39.4967 35.4333 40.123 34.7224C40.7578 34.0115 41.0752 32.9789 41.0752 31.6248C41.0752 30.3044 40.7578 29.2888 40.123 28.5779C39.4967 27.8669 38.7181 27.5115 37.7871 27.5115C36.8561 27.5115 36.0732 27.8669 35.4385 28.5779C34.8037 29.2888 34.4863 30.3129 34.4863 31.6501ZM47.2832 24.9089H50.5713V26.7498C51.7477 25.3194 53.1484 24.6042 54.7734 24.6042C55.6367 24.6042 56.3857 24.782 57.0205 25.1375C57.6553 25.4929 58.1758 26.0304 58.582 26.7498C59.1745 26.0304 59.8135 25.4929 60.499 25.1375C61.1846 24.782 61.9167 24.6042 62.6953 24.6042C63.6855 24.6042 64.5234 24.8074 65.209 25.2136C65.8945 25.6114 66.4066 26.1996 66.7451 26.9783C66.9906 27.5538 67.1133 28.4848 67.1133 29.7712V38.3914H63.5459V30.6853C63.5459 29.3481 63.4232 28.4848 63.1777 28.0955C62.8477 27.5876 62.3398 27.3337 61.6543 27.3337C61.1549 27.3337 60.6852 27.4861 60.2451 27.7908C59.805 28.0955 59.4876 28.544 59.293 29.1365C59.0983 29.7205 59.001 30.6472 59.001 31.9167V38.3914H55.4336V31.0027C55.4336 29.6908 55.3701 28.8445 55.2432 28.4636C55.1162 28.0828 54.9173 27.7992 54.6465 27.613C54.3841 27.4268 54.0244 27.3337 53.5674 27.3337C53.0173 27.3337 52.5221 27.4819 52.082 27.7781C51.6419 28.0743 51.3245 28.5017 51.1299 29.0603C50.9437 29.6189 50.8506 30.5457 50.8506 31.8406V38.3914H47.2832V24.9089ZM70.5791 24.9089H73.9053V26.8894C74.3369 26.2123 74.9209 25.6622 75.6572 25.239C76.3936 24.8158 77.2103 24.6042 78.1074 24.6042C79.6732 24.6042 81.002 25.2179 82.0938 26.4451C83.1855 27.6723 83.7314 29.3819 83.7314 31.574C83.7314 33.8253 83.1813 35.5772 82.0811 36.8298C80.9808 38.074 79.6478 38.696 78.082 38.696C77.3372 38.696 76.6602 38.5479 76.0508 38.2517C75.4499 37.9555 74.8151 37.4477 74.1465 36.7283V43.5203H70.5791V24.9089ZM74.1084 31.4216C74.1084 32.9366 74.4089 34.058 75.0098 34.7859C75.6107 35.5053 76.3428 35.865 77.2061 35.865C78.0355 35.865 78.7253 35.5349 79.2754 34.8748C79.8255 34.2061 80.1006 33.1143 80.1006 31.5994C80.1006 30.186 79.8171 29.1365 79.25 28.4509C78.6829 27.7654 77.9805 27.4226 77.1426 27.4226C76.2708 27.4226 75.5472 27.7611 74.9717 28.4382C74.3962 29.1069 74.1084 30.1013 74.1084 31.4216ZM86.5752 38.3914V19.78H90.1426V38.3914H86.5752ZM96.4775 29.0222L93.2402 28.4382C93.6042 27.1348 94.2305 26.17 95.1191 25.5437C96.0078 24.9174 97.3281 24.6042 99.0801 24.6042C100.671 24.6042 101.856 24.7947 102.635 25.1755C103.413 25.5479 103.959 26.0261 104.272 26.6101C104.594 27.1856 104.755 28.2478 104.755 29.7966L104.717 33.9607C104.717 35.1456 104.772 36.0216 104.882 36.5886C105 37.1472 105.216 37.7481 105.529 38.3914H102C101.907 38.1544 101.793 37.8031 101.657 37.3376C101.598 37.1261 101.556 36.9864 101.53 36.9187C100.921 37.5111 100.269 37.9555 99.5752 38.2517C98.8812 38.5479 98.1406 38.696 97.3535 38.696C95.9655 38.696 94.8695 38.3194 94.0654 37.5662C93.2699 36.8129 92.8721 35.8608 92.8721 34.7097C92.8721 33.948 93.054 33.2709 93.418 32.6785C93.7819 32.0776 94.2897 31.6205 94.9414 31.3074C95.6016 30.9858 96.5495 30.7065 97.7852 30.4695C99.4525 30.1563 100.608 29.8643 101.251 29.5935V29.238C101.251 28.5525 101.082 28.0658 100.743 27.7781C100.405 27.4819 99.7656 27.3337 98.8262 27.3337C98.1914 27.3337 97.6963 27.4607 97.3408 27.7146C96.9854 27.96 96.6976 28.3959 96.4775 29.0222ZM101.251 31.9167C100.794 32.0691 100.07 32.2511 99.0801 32.4626C98.0898 32.6742 97.4424 32.8816 97.1377 33.0847C96.6722 33.4148 96.4395 33.8337 96.4395 34.3416C96.4395 34.8409 96.6257 35.2725 96.998 35.6365C97.3704 36.0004 97.8444 36.1824 98.4199 36.1824C99.0632 36.1824 99.6768 35.9708 100.261 35.5476C100.692 35.226 100.976 34.8324 101.111 34.3669C101.204 34.0623 101.251 33.4825 101.251 32.6277V31.9167ZM108.284 23.0808V19.78H111.852V23.0808H108.284ZM108.284 38.3914V24.9089H111.852V38.3914H108.284ZM127.784 38.3914H124.217V31.5105C124.217 30.0548 124.141 29.1153 123.988 28.6921C123.836 28.2605 123.586 27.9262 123.239 27.6892C122.901 27.4522 122.49 27.3337 122.008 27.3337C121.39 27.3337 120.836 27.503 120.345 27.8416C119.854 28.1801 119.515 28.6287 119.329 29.1873C119.151 29.7458 119.062 30.7784 119.062 32.2849V38.3914H115.495V24.9089H118.809V26.8894C119.985 25.366 121.466 24.6042 123.252 24.6042C124.039 24.6042 124.758 24.7481 125.41 25.0359C126.062 25.3152 126.553 25.6749 126.883 26.115C127.221 26.5551 127.454 27.0544 127.581 27.613C127.716 28.1716 127.784 28.9714 127.784 30.0125V38.3914Z" fill="white"/>
<path d="M131.44 38.3914V19.78H145.24V22.9285H135.198V27.0544H144.542V30.1902H135.198V35.2556H145.596V38.3914H131.44ZM151.423 29.0222L148.186 28.4382C148.549 27.1348 149.176 26.17 150.064 25.5437C150.953 24.9174 152.273 24.6042 154.025 24.6042C155.617 24.6042 156.801 24.7947 157.58 25.1755C158.359 25.5479 158.905 26.0261 159.218 26.6101C159.539 27.1856 159.7 28.2478 159.7 29.7966L159.662 33.9607C159.662 35.1456 159.717 36.0216 159.827 36.5886C159.946 37.1472 160.161 37.7481 160.475 38.3914H156.945C156.852 38.1544 156.738 37.8031 156.603 37.3376C156.543 37.1261 156.501 36.9864 156.476 36.9187C155.866 37.5111 155.215 37.9555 154.521 38.2517C153.826 38.5479 153.086 38.696 152.299 38.696C150.911 38.696 149.815 38.3194 149.011 37.5662C148.215 36.8129 147.817 35.8608 147.817 34.7097C147.817 33.948 147.999 33.2709 148.363 32.6785C148.727 32.0776 149.235 31.6205 149.887 31.3074C150.547 30.9858 151.495 30.7065 152.73 30.4695C154.398 30.1563 155.553 29.8643 156.196 29.5935V29.238C156.196 28.5525 156.027 28.0658 155.688 27.7781C155.35 27.4819 154.711 27.3337 153.771 27.3337C153.137 27.3337 152.642 27.4607 152.286 27.7146C151.931 27.96 151.643 28.3959 151.423 29.0222ZM156.196 31.9167C155.739 32.0691 155.016 32.2511 154.025 32.4626C153.035 32.6742 152.388 32.8816 152.083 33.0847C151.618 33.4148 151.385 33.8337 151.385 34.3416C151.385 34.8409 151.571 35.2725 151.943 35.6365C152.316 36.0004 152.79 36.1824 153.365 36.1824C154.008 36.1824 154.622 35.9708 155.206 35.5476C155.638 35.226 155.921 34.8324 156.057 34.3669C156.15 34.0623 156.196 33.4825 156.196 32.6277V31.9167ZM161.973 34.5447L165.553 33.9988C165.705 34.6928 166.014 35.2218 166.479 35.5857C166.945 35.9412 167.597 36.1189 168.435 36.1189C169.357 36.1189 170.051 35.9496 170.517 35.6111C170.83 35.3741 170.986 35.0567 170.986 34.6589C170.986 34.3881 170.902 34.1638 170.732 33.9861C170.555 33.8168 170.157 33.6602 169.539 33.5164C166.661 32.8816 164.838 32.3018 164.067 31.7771C163.001 31.0492 162.468 30.0378 162.468 28.7429C162.468 27.575 162.929 26.5932 163.852 25.7976C164.774 25.002 166.204 24.6042 168.143 24.6042C169.988 24.6042 171.359 24.9047 172.256 25.5056C173.153 26.1065 173.771 26.9952 174.109 28.1716L170.745 28.7937C170.601 28.269 170.326 27.8669 169.92 27.5876C169.522 27.3083 168.951 27.1687 168.206 27.1687C167.267 27.1687 166.594 27.2999 166.188 27.5623C165.917 27.7485 165.781 27.9897 165.781 28.2859C165.781 28.5398 165.9 28.7556 166.137 28.9333C166.458 29.1703 167.567 29.5046 169.463 29.9363C171.367 30.3679 172.696 30.8969 173.449 31.5232C174.194 32.158 174.566 33.0424 174.566 34.1765C174.566 35.4122 174.05 36.4744 173.018 37.363C171.985 38.2517 170.457 38.696 168.435 38.696C166.598 38.696 165.142 38.3236 164.067 37.5789C163.001 36.8341 162.303 35.8227 161.973 34.5447ZM176.014 24.9089H179.81L183.034 34.4812L186.183 24.9089H189.877L185.116 37.8835L184.266 40.2322C183.952 41.0193 183.652 41.6202 183.364 42.0349C183.085 42.4496 182.759 42.7839 182.387 43.0378C182.023 43.3002 181.57 43.5033 181.028 43.6472C180.495 43.7911 179.89 43.863 179.213 43.863C178.527 43.863 177.854 43.7911 177.194 43.6472L176.877 40.8542C177.436 40.9643 177.939 41.0193 178.388 41.0193C179.217 41.0193 179.831 40.7738 180.229 40.283C180.626 39.8005 180.931 39.1827 181.143 38.4294L176.014 24.9089Z" fill="#ABFF2F"/>
<path d="M24.7998 31.5486L25.102 30.5954L24.0681 30.2675L23.8252 31.3246L24.7998 31.5486ZM28.4434 32.7039L29.4076 32.969L29.6627 32.0414L28.7456 31.7506L28.4434 32.7039ZM25.6504 37.2361L26.2545 38.0329L26.2553 38.0323L25.6504 37.2361ZM14.6182 36.1824L13.8895 36.8673L13.8913 36.8691L14.6182 36.1824ZM14.6309 22.0398L15.3611 22.723L15.3628 22.7212L14.6309 22.0398ZM26.4883 21.4812L25.8009 22.2075L25.8034 22.2098L26.4883 21.4812ZM28.3926 24.9089L28.6249 25.8816L29.6396 25.6392L29.3545 24.6357L28.3926 24.9089ZM24.6729 25.7976L23.6979 26.02L23.9225 27.005L24.9052 26.7702L24.6729 25.7976ZM23.2891 23.5125L22.662 24.2915L22.6667 24.2952L23.2891 23.5125ZM17.3857 24.1599L16.632 23.5028L16.6288 23.5065L17.3857 24.1599ZM24.7998 31.5486L24.4976 32.5018L28.1411 33.6571L28.4434 32.7039L28.7456 31.7506L25.102 30.5954L24.7998 31.5486ZM28.4434 32.7039L27.4792 32.4387C26.9619 34.3195 26.1294 35.6163 25.0454 36.4398L25.6504 37.2361L26.2553 38.0323C27.7781 36.8754 28.8076 35.1507 29.4076 32.969L28.4434 32.7039ZM25.6504 37.2361L25.0462 36.4392C23.9619 37.2613 22.5422 37.7087 20.7119 37.7087V38.7087V39.7087C22.8764 39.7087 24.7491 39.1744 26.2545 38.0329L25.6504 37.2361ZM20.7119 38.7087V37.7087C18.4951 37.7087 16.7337 36.9655 15.3451 35.4956L14.6182 36.1824L13.8913 36.8691C15.6849 38.7677 17.986 39.7087 20.7119 39.7087V38.7087ZM14.6182 36.1824L15.3468 35.4975C13.9722 34.0351 13.2314 31.9938 13.2314 29.2507H12.2314H11.2314C11.2314 32.3644 12.0818 34.9442 13.8895 36.8673L14.6182 36.1824ZM12.2314 29.2507H13.2314C13.2314 26.3227 13.9848 24.194 15.3611 22.723L14.6309 22.0398L13.9006 21.3566C12.0777 23.3049 11.2314 25.9834 11.2314 29.2507H12.2314ZM14.6309 22.0398L15.3628 22.7212C16.7512 21.2299 18.5773 20.4626 20.9404 20.4626V19.4626V18.4626C18.09 18.4626 15.7097 19.4135 13.899 21.3584L14.6309 22.0398ZM20.9404 19.4626V20.4626C23.0061 20.4626 24.5948 21.066 25.8009 22.2075L26.4883 21.4812L27.1757 20.7549C25.538 19.205 23.4282 18.4626 20.9404 18.4626V19.4626ZM26.4883 21.4812L25.8034 22.2098C26.481 22.8468 27.0409 23.8104 27.4306 25.1822L28.3926 24.9089L29.3545 24.6357C28.8979 23.0283 28.1883 21.7068 27.1732 20.7526L26.4883 21.4812ZM28.3926 24.9089L28.1602 23.9363L24.4405 24.825L24.6729 25.7976L24.9052 26.7702L28.6249 25.8816L28.3926 24.9089ZM24.6729 25.7976L25.6478 25.5752C25.3828 24.4132 24.8101 23.4444 23.9115 22.7297L23.2891 23.5125L22.6667 24.2952C23.1729 24.6977 23.5228 25.2524 23.6979 26.02L24.6729 25.7976ZM23.2891 23.5125L23.9161 22.7334C23.0229 22.0145 21.9476 21.6746 20.75 21.6746V22.6746V23.6746C21.5498 23.6746 22.1672 23.8932 22.6621 24.2915L23.2891 23.5125ZM20.75 22.6746V21.6746C19.0979 21.6746 17.6957 22.2826 16.632 23.5028L17.3857 24.1599L18.1395 24.817C18.8023 24.0568 19.643 23.6746 20.75 23.6746V22.6746ZM17.3857 24.1599L16.6288 23.5065C15.5398 24.7679 15.1035 26.6674 15.1035 28.9714H16.1035H17.1035C17.1035 26.8406 17.522 25.5324 18.1427 24.8134L17.3857 24.1599ZM16.1035 28.9714H15.1035C15.1035 31.3924 15.5288 33.3693 16.6102 34.6453L17.373 33.9988L18.1359 33.3523C17.5246 32.6308 17.1035 31.2562 17.1035 28.9714H16.1035ZM17.373 33.9988L16.6102 34.6453C17.6539 35.8769 19.0374 36.4968 20.6738 36.4968V35.4968V34.4968C19.6019 34.4968 18.7849 34.118 18.1359 33.3523L17.373 33.9988ZM20.6738 35.4968V36.4968C21.9053 36.4968 23.0025 36.0976 23.9126 35.2945L23.251 34.5447L22.5894 33.7948C22.0607 34.2613 21.4398 34.4968 20.6738 34.4968V35.4968ZM23.251 34.5447L23.9126 35.2945C24.8456 34.4713 25.4349 33.2498 25.7744 31.7726L24.7998 31.5486L23.8252 31.3246C23.5384 32.5726 23.0952 33.3485 22.5894 33.7948L23.251 34.5447ZM34.1816 25.4802L33.7042 24.6015L33.7013 24.6031L34.1816 25.4802ZM42.7891 26.5974L42.0752 27.2977L42.0774 27.2999L42.7891 26.5974ZM42.7637 36.6902L42.0499 35.9898L42.0498 35.9899L42.7637 36.6902ZM34.2578 37.8582L33.8106 38.7526L33.8133 38.7539L34.2578 37.8582ZM31.7061 35.408L30.8258 35.8825L30.8274 35.8854L31.7061 35.408ZM40.123 34.7224L39.3771 34.0564L39.3727 34.0614L40.123 34.7224ZM40.123 28.5779L39.3727 29.2389L39.3771 29.2439L40.123 28.5779ZM30.8301 31.4597H31.8301C31.8301 30.4466 32.078 29.4589 32.5908 28.4853L31.7061 28.0193L30.8213 27.5533C30.1661 28.7971 29.8301 30.1031 29.8301 31.4597H30.8301ZM31.7061 28.0193L32.5908 28.4853C33.0863 27.5447 33.7733 26.844 34.662 26.3573L34.1816 25.4802L33.7013 24.6031C32.4571 25.2845 31.4938 26.2764 30.8213 27.5533L31.7061 28.0193ZM34.1816 25.4802L34.659 26.3589C35.5759 25.8608 36.6073 25.6042 37.7744 25.6042V24.6042V23.6042C36.3009 23.6042 34.9371 23.9317 33.7042 24.6015L34.1816 25.4802ZM37.7744 24.6042V25.6042C39.574 25.6042 40.9788 26.18 42.0752 27.2977L42.7891 26.5974L43.503 25.8972C41.9925 24.3573 40.0543 23.6042 37.7744 23.6042V24.6042ZM42.7891 26.5974L42.0774 27.2999C43.1785 28.4153 43.7441 29.8262 43.7441 31.6121H44.7441H45.7441C45.7441 29.3524 45.0064 27.4201 43.5007 25.8949L42.7891 26.5974ZM44.7441 31.6121H43.7441C43.7441 33.4135 43.1708 34.8473 42.0499 35.9898L42.7637 36.6902L43.4775 37.3905C44.9971 35.8417 45.7441 33.8901 45.7441 31.6121H44.7441ZM42.7637 36.6902L42.0498 35.9899C40.9394 37.1218 39.5484 37.696 37.7998 37.696V38.696V39.696C40.046 39.696 41.9642 38.9331 43.4775 37.3905L42.7637 36.6902ZM37.7998 38.696V37.696C36.721 37.696 35.6923 37.4536 34.7023 36.9624L34.2578 37.8582L33.8133 38.7539C35.0747 39.3799 36.4072 39.696 37.7998 39.696V38.696ZM34.2578 37.8582L34.705 36.9637C33.7668 36.4946 33.0688 35.8215 32.5847 34.9306L31.7061 35.408L30.8274 35.8854C31.5113 37.1441 32.5144 38.1045 33.8106 38.7526L34.2578 37.8582ZM31.7061 35.408L32.5863 34.9334C32.0987 34.0289 31.8301 32.8849 31.8301 31.4597H30.8301H29.8301C29.8301 33.1322 30.1455 34.6204 30.8258 35.8825L31.7061 35.408ZM34.4863 31.6501H33.4863C33.4863 33.1343 33.8385 34.432 34.6925 35.3884L35.4385 34.7224L36.1844 34.0564C35.7689 33.591 35.4863 32.8405 35.4863 31.6501H34.4863ZM35.4385 34.7224L34.6925 35.3884C35.5119 36.3061 36.5636 36.7888 37.7871 36.7888V35.7888V34.7888C37.1486 34.7888 36.6346 34.5606 36.1844 34.0564L35.4385 34.7224ZM37.7871 35.7888V36.7888C39.0111 36.7888 40.0611 36.3055 40.8734 35.3834L40.123 34.7224L39.3727 34.0614C38.9324 34.5612 38.4251 34.7888 37.7871 34.7888V35.7888ZM40.123 34.7224L40.869 35.3884C41.7248 34.4299 42.0752 33.122 42.0752 31.6248H41.0752H40.0752C40.0752 32.8359 39.7908 33.593 39.3771 34.0564L40.123 34.7224ZM41.0752 31.6248H42.0752C42.0752 30.1536 41.7211 28.8662 40.869 27.9119L40.123 28.5779L39.3771 29.2439C39.7945 29.7114 40.0752 30.4553 40.0752 31.6248H41.0752ZM40.123 28.5779L40.8734 27.9169C40.0611 26.9948 39.0111 26.5115 37.7871 26.5115V27.5115V28.5115C38.4251 28.5115 38.9324 28.7391 39.3727 29.2389L40.123 28.5779ZM37.7871 27.5115V26.5115C36.5636 26.5115 35.5119 26.9942 34.6925 27.9119L35.4385 28.5779L36.1844 29.2439C36.6346 28.7397 37.1486 28.5115 37.7871 28.5115V27.5115ZM35.4385 28.5779L34.6925 27.9119C33.8385 28.8683 33.4863 30.166 33.4863 31.6501H34.4863H35.4863C35.4863 30.4598 35.7689 29.7093 36.1844 29.2439L35.4385 28.5779ZM47.2832 24.9089V23.9089H46.2832V24.9089H47.2832ZM50.5713 24.9089H51.5713V23.9089H50.5713V24.9089ZM50.5713 26.7498H49.5713V29.5398L51.3436 27.385L50.5713 26.7498ZM58.582 26.7498L57.7113 27.2415L58.4277 28.5102L59.354 27.3855L58.582 26.7498ZM65.209 25.2136L64.6992 26.074L64.7071 26.0786L65.209 25.2136ZM66.7451 26.9783L67.665 26.586L67.6622 26.5795L66.7451 26.9783ZM67.1133 38.3914V39.3914H68.1133V38.3914H67.1133ZM63.5459 38.3914H62.5459V39.3914H63.5459V38.3914ZM63.1777 28.0955L64.0237 27.5621L64.0162 27.5505L63.1777 28.0955ZM59.293 29.1365L60.2417 29.4527L60.243 29.4486L59.293 29.1365ZM59.001 38.3914V39.3914H60.001V38.3914H59.001ZM55.4336 38.3914H54.4336V39.3914H55.4336V38.3914ZM54.6465 27.613L54.0677 28.4285L54.0738 28.4329L54.08 28.4371L54.6465 27.613ZM52.082 27.7781L52.6404 28.6077L52.082 27.7781ZM51.1299 29.0603L50.1855 28.7312L50.1812 28.7441L51.1299 29.0603ZM50.8506 38.3914V39.3914H51.8506V38.3914H50.8506ZM47.2832 38.3914H46.2832V39.3914H47.2832V38.3914ZM47.2832 24.9089V25.9089H50.5713V24.9089V23.9089H47.2832V24.9089ZM50.5713 24.9089H49.5713V26.7498H50.5713H51.5713V24.9089H50.5713ZM50.5713 26.7498L51.3436 27.385C52.3599 26.1494 53.4914 25.6042 54.7734 25.6042V24.6042V23.6042C52.8054 23.6042 51.1355 24.4895 49.799 26.1145L50.5713 26.7498ZM54.7734 24.6042V25.6042C55.4976 25.6042 56.072 25.7524 56.5319 26.01L57.0205 25.1375L57.5091 24.2649C56.6994 23.8115 55.7758 23.6042 54.7734 23.6042V24.6042ZM57.0205 25.1375L56.5319 26.01C56.986 26.2643 57.3826 26.6595 57.7113 27.2415L58.582 26.7498L59.4528 26.258C58.9689 25.4012 58.3245 24.7216 57.5091 24.2649L57.0205 25.1375ZM58.582 26.7498L59.354 27.3855C59.878 26.7492 60.4157 26.3071 60.9593 26.0252L60.499 25.1375L60.0387 24.2497C59.2113 24.6787 58.471 25.3115 57.8101 26.114L58.582 26.7498ZM60.499 25.1375L60.9593 26.0252C61.5014 25.7441 62.0755 25.6042 62.6953 25.6042V24.6042V23.6042C61.7578 23.6042 60.8677 23.8198 60.0387 24.2497L60.499 25.1375ZM62.6953 24.6042V25.6042C63.5493 25.6042 64.2013 25.7789 64.6992 26.0739L65.209 25.2136L65.7188 24.3533C64.8456 23.8359 63.8217 23.6042 62.6953 23.6042V24.6042ZM65.209 25.2136L64.7071 26.0786C65.1946 26.3614 65.5682 26.7793 65.828 27.377L66.7451 26.9783L67.6622 26.5795C67.245 25.62 66.5945 24.8614 65.7109 24.3487L65.209 25.2136ZM66.7451 26.9783L65.8253 27.3706C65.9867 27.7491 66.1133 28.5072 66.1133 29.7712H67.1133H68.1133C68.1133 28.4624 67.9944 27.3585 67.665 26.586L66.7451 26.9783ZM67.1133 29.7712H66.1133V38.3914H67.1133H68.1133V29.7712H67.1133ZM67.1133 38.3914V37.3914H63.5459V38.3914V39.3914H67.1133V38.3914ZM63.5459 38.3914H64.5459V30.6853H63.5459H62.5459V38.3914H63.5459ZM63.5459 30.6853H64.5459C64.5459 29.9916 64.5144 29.3901 64.4439 28.8942C64.3773 28.4257 64.2621 27.9404 64.0237 27.5622L63.1777 28.0955L62.3318 28.6288C62.3281 28.6229 62.3495 28.6566 62.3794 28.7583C62.4082 28.8562 62.4378 28.9928 62.4638 29.1757C62.516 29.543 62.5459 30.0418 62.5459 30.6853H63.5459ZM63.1777 28.0955L64.0162 27.5505C63.4747 26.7175 62.6258 26.3337 61.6543 26.3337V27.3337V28.3337C62.0538 28.3337 62.2206 28.4578 62.3393 28.6404L63.1777 28.0955ZM61.6543 27.3337V26.3337C60.9367 26.3337 60.2706 26.5569 59.6759 26.9686L60.2451 27.7908L60.8143 28.613C61.0999 28.4153 61.3732 28.3337 61.6543 28.3337V27.3337ZM60.2451 27.7908L59.6759 26.9686C59.0282 27.417 58.5939 28.0604 58.3429 28.8243L59.293 29.1365L60.243 29.4486C60.3813 29.0277 60.5818 28.774 60.8143 28.613L60.2451 27.7908ZM59.293 29.1365L58.3443 28.8202C58.0958 29.5657 58.001 30.6288 58.001 31.9167H59.001H60.001C60.001 30.6656 60.1008 29.8752 60.2417 29.4527L59.293 29.1365ZM59.001 31.9167H58.001V38.3914H59.001H60.001V31.9167H59.001ZM59.001 38.3914V37.3914H55.4336V38.3914V39.3914H59.001V38.3914ZM55.4336 38.3914H56.4336V31.0027H55.4336H54.4336V38.3914H55.4336ZM55.4336 31.0027H56.4336C56.4336 30.3337 56.4175 29.7668 56.3832 29.3092C56.3505 28.8739 56.2969 28.4624 56.1918 28.1474L55.2432 28.4636L54.2945 28.7799C54.3164 28.8457 54.358 29.0478 54.3888 29.4588C54.4179 29.8476 54.4336 30.3599 54.4336 31.0027H55.4336ZM55.2432 28.4636L56.1918 28.1474C56.0117 27.607 55.6998 27.1237 55.213 26.789L54.6465 27.613L54.08 28.4371C54.1348 28.4748 54.2207 28.5585 54.2945 28.7799L55.2432 28.4636ZM54.6465 27.613L55.2252 26.7975C54.7361 26.4504 54.1477 26.3337 53.5674 26.3337V27.3337V28.3337C53.9011 28.3337 54.0321 28.4033 54.0677 28.4285L54.6465 27.613ZM53.5674 27.3337V26.3337C52.8261 26.3337 52.1351 26.5369 51.5237 26.9485L52.082 27.7781L52.6404 28.6077C52.9091 28.4268 53.2084 28.3337 53.5674 28.3337V27.3337ZM52.082 27.7781L51.5237 26.9485C50.8836 27.3793 50.4428 27.9932 50.1856 28.7312L51.1299 29.0603L52.0742 29.3894C52.2063 29.0103 52.4002 28.7693 52.6404 28.6077L52.082 27.7781ZM51.1299 29.0603L50.1812 28.7441C49.9399 29.4679 49.8506 30.5355 49.8506 31.8406H50.8506H51.8506C51.8506 30.5558 51.9474 29.7699 52.0786 29.3765L51.1299 29.0603ZM50.8506 31.8406H49.8506V38.3914H50.8506H51.8506V31.8406H50.8506ZM50.8506 38.3914V37.3914H47.2832V38.3914V39.3914H50.8506V38.3914ZM47.2832 38.3914H48.2832V24.9089H47.2832H46.2832V38.3914H47.2832ZM70.5791 24.9089V23.9089H69.5791V24.9089H70.5791ZM73.9053 24.9089H74.9053V23.9089H73.9053V24.9089ZM73.9053 26.8894H72.9053V30.3183L74.7485 27.427L73.9053 26.8894ZM75.6572 25.239L75.1589 24.372L75.6572 25.239ZM82.0938 26.4451L81.3466 27.1098L82.0938 26.4451ZM82.0811 36.8298L82.8302 37.4923L82.8324 37.4898L82.0811 36.8298ZM76.0508 38.2517L75.6086 39.1487L75.6136 39.1511L76.0508 38.2517ZM74.1465 36.7283L74.879 36.0475L73.1465 34.1834V36.7283H74.1465ZM74.1465 43.5203V44.5203H75.1465V43.5203H74.1465ZM70.5791 43.5203H69.5791V44.5203H70.5791V43.5203ZM75.0098 34.7859L74.2386 35.4225L74.2423 35.427L75.0098 34.7859ZM79.2754 34.8748L80.0436 35.515L80.0476 35.5101L79.2754 34.8748ZM74.9717 28.4382L75.7296 29.0906L75.7336 29.0859L74.9717 28.4382ZM70.5791 24.9089V25.9089H73.9053V24.9089V23.9089H70.5791V24.9089ZM73.9053 24.9089H72.9053V26.8894H73.9053H74.9053V24.9089H73.9053ZM73.9053 26.8894L74.7485 27.427C75.0884 26.8938 75.5507 26.4536 76.1555 26.106L75.6572 25.239L75.1589 24.372C74.291 24.8708 73.5854 25.5309 73.062 26.3518L73.9053 26.8894ZM75.6572 25.239L76.1555 26.106C76.7316 25.7749 77.3749 25.6042 78.1074 25.6042V24.6042V23.6042C77.0457 23.6042 76.0555 23.8567 75.1589 24.372L75.6572 25.239ZM78.1074 24.6042V25.6042C79.3722 25.6042 80.434 26.084 81.3466 27.1098L82.0938 26.4451L82.8409 25.7804C81.5699 24.3518 79.9742 23.6042 78.1074 23.6042V24.6042ZM82.0938 26.4451L81.3466 27.1098C82.2276 28.1 82.7314 29.5438 82.7314 31.574H83.7314H84.7314C84.7314 29.2201 84.1435 27.2446 82.8409 25.7804L82.0938 26.4451ZM83.7314 31.574H82.7314C82.7314 33.6683 82.2209 35.1553 81.3297 36.1699L82.0811 36.8298L82.8324 37.4898C84.1417 35.9991 84.7314 33.9823 84.7314 31.574H83.7314ZM82.0811 36.8298L81.332 36.1674C80.4085 37.2116 79.3421 37.696 78.082 37.696V38.696V39.696C79.9534 39.696 81.5531 38.9363 82.8301 37.4923L82.0811 36.8298ZM78.082 38.696V37.696C77.4735 37.696 76.948 37.576 76.488 37.3523L76.0508 38.2517L75.6136 39.1511C76.3723 39.5199 77.201 39.696 78.082 39.696V38.696ZM76.0508 38.2517L76.4929 37.3548C76.0394 37.1312 75.4999 36.7155 74.879 36.0475L74.1465 36.7283L73.414 37.4091C74.1303 38.1798 74.8603 38.7798 75.6086 39.1486L76.0508 38.2517ZM74.1465 36.7283H73.1465V43.5203H74.1465H75.1465V36.7283H74.1465ZM74.1465 43.5203V42.5203H70.5791V43.5203V44.5203H74.1465V43.5203ZM70.5791 43.5203H71.5791V24.9089H70.5791H69.5791V43.5203H70.5791ZM74.1084 31.4216H73.1084C73.1084 33.0374 73.4234 34.4351 74.2386 35.4225L75.0098 34.7859L75.7809 34.1492C75.3943 33.6809 75.1084 32.8358 75.1084 31.4216H74.1084ZM75.0098 34.7859L74.2423 35.427C75.0147 36.3516 76.0187 36.865 77.2061 36.865V35.865V34.865C76.6669 34.865 76.2067 34.6589 75.7772 34.1448L75.0098 34.7859ZM77.2061 35.865V36.865C78.3444 36.865 79.3114 36.3936 80.0436 35.5149L79.2754 34.8748L78.5072 34.2346C78.1391 34.6762 77.7266 34.865 77.2061 34.865V35.865ZM79.2754 34.8748L80.0476 35.5101C80.8206 34.5706 81.1006 33.1896 81.1006 31.5994H80.1006H79.1006C79.1006 33.0391 78.8304 33.8417 78.5032 34.2394L79.2754 34.8748ZM80.1006 31.5994H81.1006C81.1006 30.082 80.8012 28.7574 80.0206 27.8136L79.25 28.4509L78.4794 29.0883C78.8329 29.5156 79.1006 30.2899 79.1006 31.5994H80.1006ZM79.25 28.4509L80.0206 27.8136C79.277 26.9146 78.299 26.4226 77.1426 26.4226V27.4226V28.4226C77.6619 28.4226 78.0889 28.6162 78.4794 29.0883L79.25 28.4509ZM77.1426 27.4226V26.4226C75.971 26.4226 74.971 26.895 74.2097 27.7906L74.9717 28.4382L75.7336 29.0859C76.1234 28.6273 76.5707 28.4226 77.1426 28.4226V27.4226ZM74.9717 28.4382L74.2138 27.7859C73.4205 28.7074 73.1084 29.977 73.1084 31.4216H74.1084H75.1084C75.1084 30.2256 75.3718 29.5063 75.7296 29.0906L74.9717 28.4382ZM86.5752 38.3914H85.5752V39.3914H86.5752V38.3914ZM86.5752 19.78V18.78H85.5752V19.78H86.5752ZM90.1426 19.78H91.1426V18.78H90.1426V19.78ZM90.1426 38.3914V39.3914H91.1426V38.3914H90.1426ZM86.5752 38.3914H87.5752V19.78H86.5752H85.5752V38.3914H86.5752ZM86.5752 19.78V20.78H90.1426V19.78V18.78H86.5752V19.78ZM90.1426 19.78H89.1426V38.3914H90.1426H91.1426V19.78H90.1426ZM90.1426 38.3914V37.3914H86.5752V38.3914V39.3914H90.1426V38.3914ZM96.4775 29.0222L96.3 30.0063L97.1385 30.1576L97.421 29.3537L96.4775 29.0222ZM93.2402 28.4382L92.2771 28.1693L91.9817 29.2273L93.0627 29.4223L93.2402 28.4382ZM95.1191 25.5437L94.5431 24.7263L95.1191 25.5437ZM102.635 25.1755L102.195 26.0739L102.203 26.0777L102.635 25.1755ZM104.272 26.6101L103.391 27.0827L103.395 27.0903L103.4 27.0979L104.272 26.6101ZM104.755 29.7966L105.755 29.8058V29.7966H104.755ZM104.717 33.9607L103.717 33.9515V33.9607H104.717ZM104.882 36.5886L103.9 36.7791L103.902 36.7876L103.904 36.7961L104.882 36.5886ZM105.529 38.3914V39.3914H107.128L106.428 37.9536L105.529 38.3914ZM102 38.3914L101.069 38.757L101.318 39.3914H102V38.3914ZM101.657 37.3376L100.694 37.6073L100.697 37.617L101.657 37.3376ZM101.53 36.9187L102.467 36.5676L101.93 35.1357L100.833 36.2017L101.53 36.9187ZM94.0654 37.5662L93.3779 38.2923L93.3817 38.2959L94.0654 37.5662ZM93.418 32.6785L94.2701 33.2019L94.2733 33.1965L93.418 32.6785ZM94.9414 31.3074L95.3745 32.2087L95.3794 32.2064L94.9414 31.3074ZM97.7852 30.4695L97.6006 29.4867L97.5968 29.4874L97.7852 30.4695ZM101.251 29.5935L101.639 30.5151L102.251 30.2575V29.5935H101.251ZM100.743 27.7781L100.085 28.5307L100.09 28.5354L100.096 28.54L100.743 27.7781ZM97.3408 27.7146L97.909 28.5375L97.9156 28.533L97.9221 28.5283L97.3408 27.7146ZM101.251 31.9167H102.251V30.5293L100.935 30.9681L101.251 31.9167ZM97.1377 33.0847L96.583 32.2527L96.571 32.2607L96.5593 32.269L97.1377 33.0847ZM100.261 35.5476L100.848 36.3574L100.858 36.3495L100.261 35.5476ZM101.111 34.3669L100.155 34.0747L100.151 34.0876L101.111 34.3669ZM96.4775 29.0222L96.6551 28.0381L93.4178 27.4541L93.2402 28.4382L93.0627 29.4223L96.3 30.0063L96.4775 29.0222ZM93.2402 28.4382L94.2034 28.7072C94.5209 27.5699 95.0374 26.8247 95.6952 26.3611L95.1191 25.5437L94.5431 24.7263C93.4236 25.5153 92.6874 26.6998 92.2771 28.1693L93.2402 28.4382ZM95.1191 25.5437L95.6952 26.3611C96.3406 25.9063 97.4188 25.6042 99.0801 25.6042V24.6042V23.6042C97.2375 23.6042 95.6751 23.9285 94.5431 24.7263L95.1191 25.5437ZM99.0801 24.6042V25.6042C100.626 25.6042 101.625 25.7948 102.195 26.0738L102.635 25.1755L103.074 24.2772C102.087 23.7946 100.717 23.6042 99.0801 23.6042V24.6042ZM102.635 25.1755L102.203 26.0777C102.848 26.386 103.205 26.7357 103.391 27.0827L104.272 26.6101L105.154 26.1375C104.714 25.3166 103.979 24.7098 103.066 24.2734L102.635 25.1755ZM104.272 26.6101L103.4 27.0979C103.476 27.2356 103.573 27.5106 103.646 27.9881C103.716 28.4532 103.755 29.0525 103.755 29.7966H104.755H105.755C105.755 28.992 105.713 28.2857 105.623 27.6887C105.534 27.104 105.39 26.5601 105.145 26.1223L104.272 26.6101ZM104.755 29.7966L103.755 29.7875L103.717 33.9515L104.717 33.9607L105.717 33.9698L105.755 29.8058L104.755 29.7966ZM104.717 33.9607H103.717C103.717 35.1576 103.771 36.1133 103.9 36.7791L104.882 36.5886L105.864 36.3981C105.773 35.9299 105.717 35.1336 105.717 33.9607H104.717ZM104.882 36.5886L103.904 36.7961C104.043 37.4515 104.29 38.1302 104.63 38.8291L105.529 38.3914L106.428 37.9536C106.142 37.3661 105.958 36.843 105.86 36.3811L104.882 36.5886ZM105.529 38.3914V37.3914H102V38.3914V39.3914H105.529V38.3914ZM102 38.3914L102.931 38.0257C102.855 37.8319 102.75 37.5157 102.617 37.0583L101.657 37.3376L100.697 37.617C100.835 38.0906 100.959 38.4768 101.069 38.757L102 38.3914ZM101.657 37.3376L102.62 37.068C102.563 36.8637 102.51 36.6823 102.467 36.5676L101.53 36.9187L100.594 37.2698C100.593 37.2684 100.596 37.275 100.602 37.2934C100.608 37.3107 100.615 37.334 100.624 37.3642C100.642 37.4248 100.666 37.5053 100.694 37.6073L101.657 37.3376ZM101.53 36.9187L100.833 36.2017C100.301 36.7192 99.7502 37.0897 99.1826 37.332L99.5752 38.2517L99.9678 39.1714C100.788 38.8212 101.541 38.3031 102.227 37.6357L101.53 36.9187ZM99.5752 38.2517L99.1826 37.332C98.6181 37.573 98.0116 37.696 97.3535 37.696V38.696V39.696C98.2696 39.696 99.1443 39.5229 99.9678 39.1714L99.5752 38.2517ZM97.3535 38.696V37.696C96.1506 37.696 95.3231 37.3741 94.7491 36.8364L94.0654 37.5662L93.3817 38.2959C94.4159 39.2647 95.7804 39.696 97.3535 39.696V38.696ZM94.0654 37.5662L94.753 36.84C94.1679 36.2861 93.8721 35.6017 93.8721 34.7097H92.8721H91.8721C91.8721 36.1198 92.3718 37.3397 93.3779 38.2923L94.0654 37.5662ZM92.8721 34.7097H93.8721C93.8721 34.1145 94.012 33.622 94.27 33.2019L93.418 32.6785L92.5659 32.155C92.0961 32.9198 91.8721 33.7815 91.8721 34.7097H92.8721ZM93.418 32.6785L94.2733 33.1965C94.5336 32.7667 94.8924 32.4404 95.3745 32.2087L94.9414 31.3074L94.5083 30.406C93.687 30.8007 93.0302 31.3884 92.5626 32.1604L93.418 32.6785ZM94.9414 31.3074L95.3794 32.2064C95.9237 31.9412 96.7722 31.682 97.9735 31.4516L97.7852 30.4695L97.5968 29.4874C96.3267 29.731 95.2794 30.0304 94.5034 30.4084L94.9414 31.3074ZM97.7852 30.4695L97.9697 31.4523C99.636 31.1394 100.887 30.8319 101.639 30.5151L101.251 29.5935L100.863 28.6719C100.329 28.8968 99.269 29.1733 97.6006 29.4867L97.7852 30.4695ZM101.251 29.5935H102.251V29.238H101.251H100.251V29.5935H101.251ZM101.251 29.238H102.251C102.251 28.4188 102.051 27.5774 101.391 27.0161L100.743 27.7781L100.096 28.54C100.112 28.5543 100.251 28.6862 100.251 29.238H101.251ZM100.743 27.7781L101.402 27.0255C101.065 26.7308 100.647 26.566 100.236 26.4707C99.8181 26.3738 99.3422 26.3337 98.8262 26.3337V27.3337V28.3337C99.2496 28.3337 99.563 28.3677 99.7842 28.419C99.893 28.4442 99.9689 28.4712 100.019 28.494C100.069 28.5168 100.086 28.5319 100.085 28.5307L100.743 27.7781ZM98.8262 27.3337V26.3337C98.0733 26.3337 97.3458 26.4822 96.7596 26.9009L97.3408 27.7146L97.9221 28.5283C98.0468 28.4392 98.3095 28.3337 98.8262 28.3337V27.3337ZM97.3408 27.7146L96.7726 26.8917C96.1725 27.3061 95.7889 27.9655 95.5341 28.6907L96.4775 29.0222L97.421 29.3537C97.6063 28.8264 97.7982 28.614 97.909 28.5375L97.3408 27.7146ZM101.251 31.9167L100.935 30.9681C100.534 31.1018 99.8555 31.2744 98.8711 31.4847L99.0801 32.4626L99.289 33.4406C100.285 33.2277 101.054 33.0364 101.567 32.8654L101.251 31.9167ZM99.0801 32.4626L98.8711 31.4847C98.3576 31.5944 97.9133 31.7071 97.5468 31.8245C97.1965 31.9367 96.8525 32.073 96.583 32.2527L97.1377 33.0847L97.6924 33.9168C97.7276 33.8933 97.8597 33.8244 98.1568 33.7292C98.4378 33.6392 98.8123 33.5424 99.289 33.4406L99.0801 32.4626ZM97.1377 33.0847L96.5593 32.269C95.8673 32.7597 95.4395 33.4657 95.4395 34.3416H96.4395H97.4395C97.4395 34.2018 97.4771 34.0699 97.7161 33.9004L97.1377 33.0847ZM96.4395 34.3416H95.4395C95.4395 35.1227 95.7434 35.8086 96.2991 36.3517L96.998 35.6365L97.697 34.9213C97.5079 34.7365 97.4395 34.5591 97.4395 34.3416H96.4395ZM96.998 35.6365L96.2991 36.3517C96.8788 36.9182 97.6132 37.1824 98.4199 37.1824V36.1824V35.1824C98.0756 35.1824 97.8621 35.0826 97.697 34.9213L96.998 35.6365ZM98.4199 36.1824V37.1824C99.2991 37.1824 100.115 36.8885 100.848 36.3574L100.261 35.5476L99.674 34.7379C99.239 35.053 98.8272 35.1824 98.4199 35.1824V36.1824ZM100.261 35.5476L100.858 36.3495C101.444 35.9129 101.869 35.3439 102.072 34.6463L101.111 34.3669L100.151 34.0876C100.083 34.321 99.9406 34.5391 99.6633 34.7457L100.261 35.5476ZM101.111 34.3669L102.068 34.6592C102.21 34.192 102.251 33.4688 102.251 32.6277H101.251H100.251C100.251 33.4962 100.198 33.9325 100.155 34.0747L101.111 34.3669ZM101.251 32.6277H102.251V31.9167H101.251H100.251V32.6277H101.251ZM108.284 23.0808H107.284V24.0808H108.284V23.0808ZM108.284 19.78V18.78H107.284V19.78H108.284ZM111.852 19.78H112.852V18.78H111.852V19.78ZM111.852 23.0808V24.0808H112.852V23.0808H111.852ZM108.284 38.3914H107.284V39.3914H108.284V38.3914ZM108.284 24.9089V23.9089H107.284V24.9089H108.284ZM111.852 24.9089H112.852V23.9089H111.852V24.9089ZM111.852 38.3914V39.3914H112.852V38.3914H111.852ZM108.284 23.0808H109.284V19.78H108.284H107.284V23.0808H108.284ZM108.284 19.78V20.78H111.852V19.78V18.78H108.284V19.78ZM111.852 19.78H110.852V23.0808H111.852H112.852V19.78H111.852ZM111.852 23.0808V22.0808H108.284V23.0808V24.0808H111.852V23.0808ZM108.284 38.3914H109.284V24.9089H108.284H107.284V38.3914H108.284ZM108.284 24.9089V25.9089H111.852V24.9089V23.9089H108.284V24.9089ZM111.852 24.9089H110.852V38.3914H111.852H112.852V24.9089H111.852ZM111.852 38.3914V37.3914H108.284V38.3914V39.3914H111.852V38.3914ZM127.784 38.3914V39.3914H128.784V38.3914H127.784ZM124.217 38.3914H123.217V39.3914H124.217V38.3914ZM123.988 28.6921L123.045 29.025L123.047 29.0309L123.988 28.6921ZM123.239 27.6892L122.666 28.5085L122.675 28.515L123.239 27.6892ZM120.345 27.8416L120.912 28.6648L120.345 27.8416ZM119.329 29.1873L118.38 28.871L118.376 28.8841L119.329 29.1873ZM119.062 38.3914V39.3914H120.062V38.3914H119.062ZM115.495 38.3914H114.495V39.3914H115.495V38.3914ZM115.495 24.9089V23.9089H114.495V24.9089H115.495ZM118.809 24.9089H119.809V23.9089H118.809V24.9089ZM118.809 26.8894H117.809V29.8205L119.6 27.5006L118.809 26.8894ZM125.41 25.0359L125.006 25.9507L125.016 25.955L125.41 25.0359ZM126.883 26.115L126.083 26.715L126.09 26.7247L126.883 26.115ZM127.581 27.613L126.606 27.8347L126.608 27.8417L126.609 27.8486L127.581 27.613ZM127.784 38.3914V37.3914H124.217V38.3914V39.3914H127.784V38.3914ZM124.217 38.3914H125.217V31.5105H124.217H123.217V38.3914H124.217ZM124.217 31.5105H125.217C125.217 30.7685 125.197 30.1402 125.156 29.6333C125.117 29.1498 125.053 28.6972 124.929 28.3534L123.988 28.6921L123.047 29.0309C123.076 29.1103 123.126 29.339 123.163 29.7949C123.198 30.2275 123.217 30.7968 123.217 31.5105H124.217ZM123.988 28.6921L124.931 28.3593C124.715 27.7461 124.342 27.2311 123.803 26.8634L123.239 27.6892L122.675 28.515C122.831 28.6213 122.957 28.7749 123.045 29.025L123.988 28.6921ZM123.239 27.6892L123.813 26.87C123.279 26.4966 122.66 26.3337 122.008 26.3337V27.3337V28.3337C122.32 28.3337 122.522 28.4079 122.666 28.5084L123.239 27.6892ZM122.008 27.3337V26.3337C121.195 26.3337 120.441 26.5603 119.777 27.0183L120.345 27.8416L120.912 28.6648C121.23 28.4457 121.585 28.3337 122.008 28.3337V27.3337ZM120.345 27.8416L119.777 27.0183C119.11 27.4784 118.636 28.1038 118.38 28.871L119.329 29.1873L120.278 29.5035C120.394 29.1536 120.598 28.8818 120.912 28.6648L120.345 27.8416ZM119.329 29.1873L118.376 28.8841C118.145 29.609 118.062 30.7876 118.062 32.2849H119.062H120.062C120.062 30.7692 120.157 29.8827 120.282 29.4905L119.329 29.1873ZM119.062 32.2849H118.062V38.3914H119.062H120.062V32.2849H119.062ZM119.062 38.3914V37.3914H115.495V38.3914V39.3914H119.062V38.3914ZM115.495 38.3914H116.495V24.9089H115.495H114.495V38.3914H115.495ZM115.495 24.9089V25.9089H118.809V24.9089V23.9089H115.495V24.9089ZM118.809 24.9089H117.809V26.8894H118.809H119.809V24.9089H118.809ZM118.809 26.8894L119.6 27.5006C120.604 26.2003 121.803 25.6042 123.252 25.6042V24.6042V23.6042C121.13 23.6042 119.366 24.5316 118.017 26.2782L118.809 26.8894ZM123.252 24.6042V25.6042C123.915 25.6042 124.495 25.7247 125.006 25.9507L125.41 25.0359L125.814 24.1211C125.022 23.7715 124.163 23.6042 123.252 23.6042V24.6042ZM125.41 25.0359L125.016 25.955C125.552 26.1848 125.884 26.4499 126.083 26.715L126.883 26.115L127.683 25.515C127.221 24.8999 126.571 24.4455 125.804 24.1167L125.41 25.0359ZM126.883 26.115L126.09 26.7247C126.338 27.0465 126.51 27.4125 126.606 27.8347L127.581 27.613L128.556 27.3914C128.398 26.6964 128.105 26.0637 127.675 25.5053L126.883 26.115ZM127.581 27.613L126.609 27.8486C126.717 28.2916 126.784 28.9979 126.784 30.0125H127.784H128.784C128.784 28.945 128.716 28.0516 128.553 27.3774L127.581 27.613ZM127.784 30.0125H126.784V38.3914H127.784H128.784V30.0125H127.784ZM131.44 38.3914H130.44V39.3914H131.44V38.3914ZM131.44 19.78V18.78H130.44V19.78H131.44ZM145.24 19.78H146.24V18.78H145.24V19.78ZM145.24 22.9285V23.9285H146.24V22.9285H145.24ZM135.198 22.9285V21.9285H134.198V22.9285H135.198ZM135.198 27.0544H134.198V28.0544H135.198V27.0544ZM144.542 27.0544H145.542V26.0544H144.542V27.0544ZM144.542 30.1902V31.1902H145.542V30.1902H144.542ZM135.198 30.1902V29.1902H134.198V30.1902H135.198ZM135.198 35.2556H134.198V36.2556H135.198V35.2556ZM145.596 35.2556H146.596V34.2556H145.596V35.2556ZM145.596 38.3914V39.3914H146.596V38.3914H145.596ZM131.44 38.3914H132.44V19.78H131.44H130.44V38.3914H131.44ZM131.44 19.78V20.78H145.24V19.78V18.78H131.44V19.78ZM145.24 19.78H144.24V22.9285H145.24H146.24V19.78H145.24ZM145.24 22.9285V21.9285H135.198V22.9285V23.9285H145.24V22.9285ZM135.198 22.9285H134.198V27.0544H135.198H136.198V22.9285H135.198ZM135.198 27.0544V28.0544H144.542V27.0544V26.0544H135.198V27.0544ZM144.542 27.0544H143.542V30.1902H144.542H145.542V27.0544H144.542ZM144.542 30.1902V29.1902H135.198V30.1902V31.1902H144.542V30.1902ZM135.198 30.1902H134.198V35.2556H135.198H136.198V30.1902H135.198ZM135.198 35.2556V36.2556H145.596V35.2556V34.2556H135.198V35.2556ZM145.596 35.2556H144.596V38.3914H145.596H146.596V35.2556H145.596ZM145.596 38.3914V37.3914H131.44V38.3914V39.3914H145.596V38.3914ZM151.423 29.0222L151.245 30.0063L152.084 30.1576L152.366 29.3537L151.423 29.0222ZM148.186 28.4382L147.222 28.1693L146.927 29.2273L148.008 29.4223L148.186 28.4382ZM150.064 25.5437L149.488 24.7263L150.064 25.5437ZM157.58 25.1755L157.141 26.0739L157.149 26.0777L157.58 25.1755ZM159.218 26.6101L158.336 27.0827L158.341 27.0903L158.345 27.0979L159.218 26.6101ZM159.7 29.7966L160.7 29.8058V29.7966H159.7ZM159.662 33.9607L158.662 33.9515V33.9607H159.662ZM159.827 36.5886L158.845 36.7791L158.847 36.7876L158.849 36.7961L159.827 36.5886ZM160.475 38.3914V39.3914H162.074L161.374 37.9536L160.475 38.3914ZM156.945 38.3914L156.015 38.757L156.264 39.3914H156.945V38.3914ZM156.603 37.3376L155.64 37.6073L155.642 37.617L156.603 37.3376ZM156.476 36.9187L157.412 36.5676L156.875 35.1357L155.779 36.2017L156.476 36.9187ZM149.011 37.5662L148.323 38.2923L148.327 38.2959L149.011 37.5662ZM148.363 32.6785L149.215 33.2019L149.219 33.1965L148.363 32.6785ZM149.887 31.3074L150.32 32.2087L150.325 32.2064L149.887 31.3074ZM152.73 30.4695L152.546 29.4867L152.542 29.4874L152.73 30.4695ZM156.196 29.5935L156.584 30.5151L157.196 30.2575V29.5935H156.196ZM155.688 27.7781L155.03 28.5307L155.035 28.5354L155.041 28.54L155.688 27.7781ZM152.286 27.7146L152.854 28.5375L152.861 28.533L152.867 28.5283L152.286 27.7146ZM156.196 31.9167H157.196V30.5293L155.88 30.9681L156.196 31.9167ZM152.083 33.0847L151.528 32.2527L151.516 32.2607L151.505 32.269L152.083 33.0847ZM155.206 35.5476L155.793 36.3574L155.804 36.3495L155.206 35.5476ZM156.057 34.3669L155.1 34.0747L155.096 34.0876L156.057 34.3669ZM151.423 29.0222L151.6 28.0381L148.363 27.4541L148.186 28.4382L148.008 29.4223L151.245 30.0063L151.423 29.0222ZM148.186 28.4382L149.149 28.7072C149.466 27.5699 149.983 26.8247 150.641 26.3611L150.064 25.5437L149.488 24.7263C148.369 25.5153 147.633 26.6998 147.222 28.1693L148.186 28.4382ZM150.064 25.5437L150.641 26.3611C151.286 25.9063 152.364 25.6042 154.025 25.6042V24.6042V23.6042C152.183 23.6042 150.62 23.9285 149.488 24.7263L150.064 25.5437ZM154.025 24.6042V25.6042C155.571 25.6042 156.57 25.7948 157.141 26.0738L157.58 25.1755L158.019 24.2772C157.033 23.7946 155.662 23.6042 154.025 23.6042V24.6042ZM157.58 25.1755L157.149 26.0777C157.793 26.386 158.15 26.7357 158.336 27.0827L159.218 26.6101L160.099 26.1375C159.659 25.3166 158.924 24.7098 158.012 24.2734L157.58 25.1755ZM159.218 26.6101L158.345 27.0979C158.422 27.2356 158.519 27.5106 158.591 27.9881C158.661 28.4532 158.7 29.0525 158.7 29.7966H159.7H160.7C160.7 28.992 160.659 28.2857 160.568 27.6887C160.48 27.104 160.335 26.5601 160.091 26.1223L159.218 26.6101ZM159.7 29.7966L158.7 29.7875L158.662 33.9515L159.662 33.9607L160.662 33.9698L160.7 29.8058L159.7 29.7966ZM159.662 33.9607H158.662C158.662 35.1576 158.716 36.1133 158.845 36.7791L159.827 36.5886L160.809 36.3981C160.718 35.9299 160.662 35.1336 160.662 33.9607H159.662ZM159.827 36.5886L158.849 36.7961C158.988 37.4515 159.235 38.1302 159.576 38.8291L160.475 38.3914L161.374 37.9536C161.088 37.3661 160.903 36.843 160.805 36.3811L159.827 36.5886ZM160.475 38.3914V37.3914H156.945V38.3914V39.3914H160.475V38.3914ZM156.945 38.3914L157.876 38.0257C157.8 37.8319 157.696 37.5157 157.563 37.0583L156.603 37.3376L155.642 37.617C155.78 38.0906 155.904 38.4768 156.015 38.757L156.945 38.3914ZM156.603 37.3376L157.566 37.068C157.508 36.8637 157.455 36.6823 157.412 36.5676L156.476 36.9187L155.539 37.2698C155.539 37.2684 155.541 37.275 155.547 37.2934C155.553 37.3107 155.56 37.334 155.569 37.3642C155.588 37.4248 155.611 37.5053 155.64 37.6073L156.603 37.3376ZM156.476 36.9187L155.779 36.2017C155.246 36.7192 154.695 37.0897 154.128 37.332L154.521 38.2517L154.913 39.1714C155.734 38.8212 156.486 38.3031 157.173 37.6357L156.476 36.9187ZM154.521 38.2517L154.128 37.332C153.563 37.573 152.957 37.696 152.299 37.696V38.696V39.696C153.215 39.696 154.09 39.5229 154.913 39.1714L154.521 38.2517ZM152.299 38.696V37.696C151.096 37.696 150.268 37.3741 149.694 36.8364L149.011 37.5662L148.327 38.2959C149.361 39.2647 150.726 39.696 152.299 39.696V38.696ZM149.011 37.5662L149.698 36.84C149.113 36.2861 148.817 35.6017 148.817 34.7097H147.817H146.817C146.817 36.1198 147.317 37.3397 148.323 38.2923L149.011 37.5662ZM147.817 34.7097H148.817C148.817 34.1145 148.957 33.622 149.215 33.2019L148.363 32.6785L147.511 32.155C147.041 32.9198 146.817 33.7815 146.817 34.7097H147.817ZM148.363 32.6785L149.219 33.1965C149.479 32.7667 149.838 32.4404 150.32 32.2087L149.887 31.3074L149.454 30.406C148.632 30.8007 147.975 31.3884 147.508 32.1604L148.363 32.6785ZM149.887 31.3074L150.325 32.2064C150.869 31.9412 151.718 31.682 152.919 31.4516L152.73 30.4695L152.542 29.4874C151.272 29.731 150.225 30.0304 149.449 30.4084L149.887 31.3074ZM152.73 30.4695L152.915 31.4523C154.581 31.1394 155.832 30.8319 156.584 30.5151L156.196 29.5935L155.808 28.6719C155.274 28.8968 154.214 29.1733 152.546 29.4867L152.73 30.4695ZM156.196 29.5935H157.196V29.238H156.196H155.196V29.5935H156.196ZM156.196 29.238H157.196C157.196 28.4188 156.996 27.5774 156.336 27.0161L155.688 27.7781L155.041 28.54C155.058 28.5543 155.196 28.6862 155.196 29.238H156.196ZM155.688 27.7781L156.347 27.0255C156.01 26.7308 155.593 26.566 155.181 26.4707C154.763 26.3738 154.288 26.3337 153.771 26.3337V27.3337V28.3337C154.195 28.3337 154.508 28.3677 154.73 28.419C154.838 28.4442 154.914 28.4712 154.964 28.494C155.014 28.5168 155.031 28.5319 155.03 28.5307L155.688 27.7781ZM153.771 27.3337V26.3337C153.019 26.3337 152.291 26.4822 151.705 26.9009L152.286 27.7146L152.867 28.5283C152.992 28.4392 153.255 28.3337 153.771 28.3337V27.3337ZM152.286 27.7146L151.718 26.8917C151.118 27.3061 150.734 27.9655 150.479 28.6907L151.423 29.0222L152.366 29.3537C152.552 28.8264 152.744 28.614 152.854 28.5375L152.286 27.7146ZM156.196 31.9167L155.88 30.9681C155.479 31.1018 154.801 31.2744 153.816 31.4847L154.025 32.4626L154.234 33.4406C155.23 33.2277 156 33.0364 156.513 32.8654L156.196 31.9167ZM154.025 32.4626L153.816 31.4847C153.303 31.5944 152.859 31.7071 152.492 31.8245C152.142 31.9367 151.798 32.073 151.528 32.2527L152.083 33.0847L152.638 33.9168C152.673 33.8933 152.805 33.8244 153.102 33.7292C153.383 33.6392 153.758 33.5424 154.234 33.4406L154.025 32.4626ZM152.083 33.0847L151.505 32.269C150.813 32.7597 150.385 33.4657 150.385 34.3416H151.385H152.385C152.385 34.2018 152.422 34.0699 152.661 33.9004L152.083 33.0847ZM151.385 34.3416H150.385C150.385 35.1227 150.689 35.8086 151.244 36.3517L151.943 35.6365L152.642 34.9213C152.453 34.7365 152.385 34.5591 152.385 34.3416H151.385ZM151.943 35.6365L151.244 36.3517C151.824 36.9182 152.559 37.1824 153.365 37.1824V36.1824V35.1824C153.021 35.1824 152.807 35.0826 152.642 34.9213L151.943 35.6365ZM153.365 36.1824V37.1824C154.244 37.1824 155.06 36.8885 155.793 36.3574L155.206 35.5476L154.619 34.7379C154.184 35.053 153.772 35.1824 153.365 35.1824V36.1824ZM155.206 35.5476L155.804 36.3495C156.389 35.9129 156.814 35.3439 157.017 34.6463L156.057 34.3669L155.096 34.0876C155.029 34.321 154.886 34.5391 154.609 34.7457L155.206 35.5476ZM156.057 34.3669L157.013 34.6592C157.156 34.192 157.196 33.4688 157.196 32.6277H156.196H155.196C155.196 33.4962 155.144 33.9325 155.1 34.0747L156.057 34.3669ZM156.196 32.6277H157.196V31.9167H156.196H155.196V32.6277H156.196ZM161.973 34.5447L161.822 33.5561L160.728 33.723L161.004 34.7947L161.973 34.5447ZM165.553 33.9988L166.529 33.7844L166.329 32.8689L165.402 33.0102L165.553 33.9988ZM166.479 35.5857L165.864 36.3736L165.873 36.3805L166.479 35.5857ZM170.517 35.6111L171.105 36.4198L171.112 36.4142L171.12 36.4085L170.517 35.6111ZM170.732 33.9861L171.457 33.2964L171.44 33.2788L171.422 33.2619L170.732 33.9861ZM169.539 33.5164L169.766 32.5424L169.754 32.5398L169.539 33.5164ZM164.067 31.7771L163.504 32.603L163.504 32.6035L164.067 31.7771ZM163.852 25.7976L164.505 26.5549L163.852 25.7976ZM172.256 25.5056L172.812 24.6748L172.256 25.5056ZM174.109 28.1716L174.291 29.155L175.375 28.9545L175.07 27.8951L174.109 28.1716ZM170.745 28.7937L169.781 29.0581L170.024 29.9441L170.927 29.777L170.745 28.7937ZM169.92 27.5876L169.345 28.4061L169.353 28.4117L169.92 27.5876ZM166.188 27.5623L165.645 26.7222L165.633 26.73L165.621 26.7382L166.188 27.5623ZM166.137 28.9333L165.537 29.7334L165.544 29.7384L166.137 28.9333ZM169.463 29.9363L169.241 30.9113L169.242 30.9115L169.463 29.9363ZM173.449 31.5232L174.098 30.7621L174.089 30.7543L173.449 31.5232ZM164.067 37.5789L163.495 38.3987L163.498 38.4008L164.067 37.5789ZM161.973 34.5447L162.123 35.5333L165.703 34.9874L165.553 33.9988L165.402 33.0102L161.822 33.5561L161.973 34.5447ZM165.553 33.9988L164.576 34.2132C164.768 35.0866 165.18 35.8387 165.864 36.3735L166.479 35.5857L167.095 34.7979C166.848 34.6048 166.642 34.299 166.529 33.7844L165.553 33.9988ZM166.479 35.5857L165.873 36.3805C166.573 36.9156 167.469 37.1189 168.435 37.1189V36.1189V35.1189C167.724 35.1189 167.317 34.9667 167.086 34.7909L166.479 35.5857ZM168.435 36.1189V37.1189C169.451 37.1189 170.393 36.9374 171.105 36.4198L170.517 35.6111L169.928 34.8023C169.709 34.9618 169.263 35.1189 168.435 35.1189V36.1189ZM170.517 35.6111L171.12 36.4085C171.687 35.9796 171.986 35.3652 171.986 34.6589H170.986H169.986C169.986 34.7236 169.974 34.748 169.972 34.7529C169.97 34.7573 169.959 34.7786 169.913 34.8137L170.517 35.6111ZM170.986 34.6589H171.986C171.986 34.1603 171.822 33.6801 171.457 33.2964L170.732 33.9861L170.008 34.6757C170.007 34.674 170.003 34.6694 169.998 34.6621C169.993 34.6548 169.99 34.6473 169.987 34.6407C169.985 34.6342 169.984 34.6311 169.985 34.633C169.985 34.6351 169.986 34.6433 169.986 34.6589H170.986ZM170.732 33.9861L171.422 33.2619C171.195 33.0455 170.91 32.9069 170.667 32.8112C170.407 32.7087 170.102 32.6207 169.766 32.5424L169.539 33.5164L169.312 34.4903C169.594 34.5559 169.797 34.6181 169.935 34.6722C170.089 34.733 170.092 34.7574 170.043 34.7102L170.732 33.9861ZM169.539 33.5164L169.754 32.5398C168.331 32.2259 167.188 31.9297 166.316 31.6525C165.42 31.3678 164.889 31.1268 164.63 30.9507L164.067 31.7771L163.504 32.6035C164.016 32.9521 164.782 33.2633 165.71 33.5585C166.662 33.861 167.869 34.1721 169.324 34.4929L169.539 33.5164ZM164.067 31.7771L164.631 30.9511C163.839 30.4103 163.468 29.7085 163.468 28.7429H162.468H161.468C161.468 30.3672 162.163 31.6882 163.504 32.603L164.067 31.7771ZM162.468 28.7429H163.468C163.468 27.8798 163.792 27.1698 164.505 26.5549L163.852 25.7976L163.198 25.0403C162.067 26.0165 161.468 27.2701 161.468 28.7429H162.468ZM163.852 25.7976L164.505 26.5549C165.165 25.9854 166.31 25.6042 168.143 25.6042V24.6042V23.6042C166.099 23.6042 164.383 24.0186 163.198 25.0403L163.852 25.7976ZM168.143 24.6042V25.6042C169.914 25.6042 171.047 25.8993 171.699 26.3365L172.256 25.5056L172.812 24.6748C171.671 23.9101 170.061 23.6042 168.143 23.6042V24.6042ZM172.256 25.5056L171.699 26.3365C172.374 26.7886 172.866 27.4662 173.148 28.4482L174.109 28.1716L175.07 27.8951C174.676 26.5242 173.932 25.4245 172.812 24.6748L172.256 25.5056ZM174.109 28.1716L173.928 27.1883L170.563 27.8104L170.745 28.7937L170.927 29.777L174.291 29.155L174.109 28.1716ZM170.745 28.7937L171.71 28.5293C171.51 27.8021 171.108 27.1908 170.486 26.7636L169.92 27.5876L169.353 28.4117C169.545 28.5431 169.692 28.7358 169.781 29.0581L170.745 28.7937ZM169.92 27.5876L170.495 26.7692C169.861 26.3241 169.054 26.1687 168.206 26.1687V27.1687V28.1687C168.848 28.1687 169.184 28.2926 169.345 28.4061L169.92 27.5876ZM168.206 27.1687V26.1687C167.226 26.1687 166.305 26.2958 165.645 26.7222L166.188 27.5623L166.73 28.4023C166.882 28.3039 167.307 28.1687 168.206 28.1687V27.1687ZM166.188 27.5623L165.621 26.7382C165.114 27.0871 164.781 27.6203 164.781 28.2859H165.781H166.781C166.781 28.2886 166.781 28.3004 166.776 28.3184C166.772 28.3367 166.764 28.3555 166.755 28.3723C166.735 28.408 166.721 28.4089 166.754 28.3863L166.188 27.5623ZM165.781 28.2859H164.781C164.781 28.9096 165.096 29.4025 165.537 29.7333L166.137 28.9333L166.737 28.1333C166.709 28.1128 166.725 28.1174 166.747 28.1569C166.757 28.1763 166.767 28.1994 166.773 28.2246C166.779 28.2496 166.781 28.2709 166.781 28.2859H165.781ZM166.137 28.9333L165.544 29.7384C165.729 29.8754 165.955 29.9785 166.155 30.058C166.37 30.1441 166.628 30.231 166.921 30.3192C167.507 30.496 168.283 30.6933 169.241 30.9113L169.463 29.9363L169.685 28.9612C168.747 28.7476 168.021 28.562 167.498 28.4044C167.236 28.3255 167.038 28.2574 166.896 28.2007C166.738 28.1374 166.705 28.1098 166.73 28.1283L166.137 28.9333ZM169.463 29.9363L169.242 30.9115C171.116 31.3364 172.248 31.8246 172.81 32.2921L173.449 31.5232L174.089 30.7543C173.144 29.9692 171.618 29.3995 169.684 28.961L169.463 29.9363ZM173.449 31.5232L172.801 32.2843C173.286 32.6979 173.566 33.2836 173.566 34.1765H174.566H175.566C175.566 32.8012 175.102 31.618 174.098 30.7621L173.449 31.5232ZM174.566 34.1765H173.566C173.566 35.089 173.203 35.8845 172.365 36.6051L173.018 37.363L173.67 38.121C174.898 37.0642 175.566 35.7354 175.566 34.1765H174.566ZM173.018 37.363L172.365 36.6051C171.584 37.2771 170.331 37.696 168.435 37.696V38.696V39.696C170.584 39.696 172.386 39.2263 173.67 38.121L173.018 37.363ZM168.435 38.696V37.696C166.722 37.696 165.489 37.3475 164.637 36.7569L164.067 37.5789L163.498 38.4008C164.795 39.2998 166.474 39.696 168.435 39.696V38.696ZM164.067 37.5789L164.64 36.759C163.772 36.1531 163.212 35.3453 162.941 34.2946L161.973 34.5447L161.004 34.7947C161.393 36.3 162.23 37.5151 163.495 38.3987L164.067 37.5789ZM176.014 24.9089V23.9089H174.565L175.079 25.2636L176.014 24.9089ZM179.81 24.9089L180.757 24.5897L180.528 23.9089H179.81V24.9089ZM183.034 34.4812L182.087 34.8004L183.046 37.6473L183.984 34.7936L183.034 34.4812ZM186.183 24.9089V23.9089H185.459L185.233 24.5965L186.183 24.9089ZM189.877 24.9089L190.816 25.2534L191.309 23.9089H189.877V24.9089ZM185.116 37.8835L184.177 37.5391L184.176 37.543L185.116 37.8835ZM184.266 40.2322L185.195 40.6018L185.201 40.5874L185.206 40.5727L184.266 40.2322ZM183.364 42.0349L182.543 41.4648L182.535 41.4763L183.364 42.0349ZM182.387 43.0378L181.823 42.2116L181.813 42.219L181.802 42.2267L182.387 43.0378ZM181.028 43.6472L180.772 42.6807L180.768 42.6817L181.028 43.6472ZM177.194 43.6472L176.201 43.7601L176.282 44.4718L176.981 44.6243L177.194 43.6472ZM176.877 40.8542L177.07 39.8731L175.729 39.6089L175.883 40.9672L176.877 40.8542ZM180.229 40.283L179.457 39.6468L179.452 39.6534L180.229 40.283ZM181.143 38.4294L182.105 38.6999L182.194 38.3827L182.078 38.0748L181.143 38.4294ZM176.014 24.9089V25.9089H179.81V24.9089V23.9089H176.014V24.9089ZM179.81 24.9089L178.862 25.2282L182.087 34.8004L183.034 34.4812L183.982 34.162L180.757 24.5897L179.81 24.9089ZM183.034 34.4812L183.984 34.7936L187.133 25.2214L186.183 24.9089L185.233 24.5965L182.084 34.1688L183.034 34.4812ZM186.183 24.9089V25.9089H189.877V24.9089V23.9089H186.183V24.9089ZM189.877 24.9089L188.938 24.5645L184.177 37.5391L185.116 37.8835L186.055 38.228L190.816 25.2534L189.877 24.9089ZM185.116 37.8835L184.176 37.543L183.325 39.8917L184.266 40.2322L185.206 40.5727L186.056 38.2241L185.116 37.8835ZM184.266 40.2322L183.336 39.8625C183.035 40.6196 182.768 41.1405 182.543 41.4648L183.364 42.0349L184.186 42.605C184.536 42.0999 184.87 41.4189 185.195 40.6018L184.266 40.2322ZM183.364 42.0349L182.535 41.4763C182.319 41.7972 182.08 42.0366 181.823 42.2116L182.387 43.0378L182.95 43.8641C183.438 43.5312 183.851 43.102 184.194 42.5935L183.364 42.0349ZM182.387 43.0378L181.802 42.2267C181.558 42.4024 181.224 42.5607 180.772 42.6807L181.028 43.6472L181.285 44.6137C181.916 44.446 182.487 44.1981 182.972 43.849L182.387 43.0378ZM181.028 43.6472L180.768 42.6817C180.336 42.7982 179.821 42.863 179.213 42.863V43.863V44.863C179.959 44.863 180.654 44.784 181.289 44.6127L181.028 43.6472ZM179.213 43.863V42.863C178.598 42.863 177.996 42.7986 177.407 42.6702L177.194 43.6472L176.981 44.6243C177.713 44.7836 178.457 44.863 179.213 44.863V43.863ZM177.194 43.6472L178.188 43.5343L177.871 40.7413L176.877 40.8542L175.883 40.9672L176.201 43.7601L177.194 43.6472ZM176.877 40.8542L176.684 41.8354C177.29 41.9548 177.86 42.0193 178.388 42.0193V41.0193V40.0193C178.019 40.0193 177.581 39.9738 177.07 39.8731L176.877 40.8542ZM178.388 41.0193V42.0193C179.417 42.0193 180.362 41.7066 181.005 40.9125L180.229 40.283L179.452 39.6534C179.299 39.8411 179.017 40.0193 178.388 40.0193V41.0193ZM180.229 40.283L181 40.9191C181.506 40.3061 181.865 39.5544 182.105 38.6999L181.143 38.4294L180.18 38.159C179.997 38.811 179.747 39.295 179.457 39.6468L180.229 40.283ZM181.143 38.4294L182.078 38.0748L176.949 24.5543L176.014 24.9089L175.079 25.2636L180.208 38.7841L181.143 38.4294Z" fill="black" mask="url(#path-2-outside-1_11_104)"/>
</svg>
